<?xml version="1.0" encoding="utf-8"?>
<!-- Generator: Adobe Illustrator 17.0.0, SVG Export Plug-In . SVG Version: 6.00 Build 0)  -->
<!DOCTYPE svg PUBLIC "-//W3C//DTD SVG 1.1//EN" "http://www.w3.org/Graphics/SVG/1.1/DTD/svg11.dtd">
<svg version="1.1" id="Layer_1" xmlns="http://www.w3.org/2000/svg" xmlns:xlink="http://www.w3.org/1999/xlink" x="0px" y="0px"
	 width="1200px" height="1200px" viewBox="0 0 1200 1200" enable-background="new 0 0 1200 1200" xml:space="preserve">
<g>
	
		<radialGradient id="SVGID_1_" cx="438.5296" cy="352.3936" r="1162.2572" gradientTransform="matrix(0.8351 -0.5501 0.5501 0.8351 -185.3445 400.2758)" gradientUnits="userSpaceOnUse">
		<stop  offset="0" style="stop-color:#FFFCF2"/>
		<stop  offset="1" style="stop-color:#E3DECE"/>
	</radialGradient>
	<path fill="url(#SVGID_1_)" d="M1095.951,761.729c20.571,31.239,11.94,73.253-19.309,93.834l-429.999,283.253
		c-31.249,20.591-73.263,11.94-93.844-19.299l-448.75-681.245c-20.576-31.248-11.935-73.262,19.319-93.843L553.367,61.164
		c31.234-20.561,73.252-11.92,93.833,19.319L1095.951,761.729z"/>
	
		<linearGradient id="SVGID_2_" gradientUnits="userSpaceOnUse" x1="529.1693" y1="1122.7335" x2="276.2699" y2="498.4019" gradientTransform="matrix(0.9991 -0.0424 0.0424 0.9991 118.454 -322.7141)">
		<stop  offset="0" style="stop-color:#2A2120"/>
		<stop  offset="1" style="stop-color:#5B5754"/>
	</linearGradient>
	<path fill="url(#SVGID_2_)" d="M479.801,423.699c-62.805,175.68-47.44,428.654,94.862,410.979
		c86.405-10.756,96.036-76.276,94.734-111.704c10.892,13.251,45.38,56.194,58.157,83.665c26.805-17.762,26.805-17.762,26.805-17.762
		s-41.828-43.041-62.448-77.403c37.047,13.124,105.533,23.195,138.186-62.82C876.153,527.389,642.259,446.581,479.801,423.699z"/>
	<path fill="#2B2123" d="M239.198,462.875c-8.906,24.897-6.719,60.735,13.447,58.24c12.247-1.516,13.603-10.814,13.417-15.835
		c1.541,1.879,6.435,7.976,8.246,11.852c3.802-2.505,3.802-2.505,3.802-2.505s-5.936-6.097-8.857-10.961
		c5.255,1.85,14.963,3.269,19.583-8.915C295.358,477.565,262.225,466.124,239.198,462.875z"/>
	<g>
		<path fill="#2B2123" d="M189.785,454.508l-17.714-77.314c-0.465-1.595-0.367-3.103,0.294-4.541c0.651-1.429,1.575-2.672,2.794-3.7
			c0.161-0.127,0.304-0.215,0.431-0.294c0.127-0.078,0.269-0.185,0.431-0.284c0.083-0.058,0.19-0.117,0.313-0.205
			c0.122-0.078,0.265-0.176,0.436-0.284c1.375-0.793,2.838-1.214,4.384-1.292c1.551-0.069,2.74,0.333,3.553,1.214l64.527,47.533
			c1.713,1.371,3.362,2.016,4.938,1.987c1.58-0.039,3.029-0.314,4.35-0.823c0.333-0.214,0.694-0.411,1.1-0.635
			c0.387-0.205,0.764-0.411,1.082-0.636l3.587-2.359c1.218-0.674,2.363-1.134,3.454-1.389c1.081-0.225,2.035,0.274,2.843,1.507
			c1.204,1.81,1.35,3.425,0.445,4.844c-0.886,1.428-2.256,2.74-4.076,3.943c-0.901,0.597-1.879,1.175-2.921,1.752
			c-1.047,0.568-2.12,1.096-3.215,1.585c-0.171,0.108-0.314,0.205-0.436,0.275c-0.122,0.097-0.269,0.185-0.435,0.294
			c-1.273,0.596-2.461,1.214-3.583,1.83c-1.14,0.626-2.143,1.233-3.053,1.83c-0.916,0.606-1.928,1.36-3.045,2.271
			c-1.115,0.91-2.256,1.927-3.405,3.053c-0.245,0.157-0.499,0.353-0.764,0.587c-0.264,0.236-0.494,0.46-0.689,0.725
			c-1.013,0.783-1.982,1.566-2.897,2.339c-0.9,0.774-1.811,1.468-2.716,2.065c-1.815,1.194-3.631,1.908-5.422,2.153
			c-1.806,0.225-3.352-0.636-4.658-2.623c-0.969-1.468-1.195-2.76-0.685-3.875c0.504-1.116,1.375-2.084,2.613-2.907
			c0.495-0.323,1.086-0.645,1.752-0.969c0.68-0.323,1.38-0.655,2.094-1.017c0.078-0.049,0.142-0.029,0.205,0.049
			c0.789-0.411,1.522-0.784,2.198-1.106c0.679-0.333,1.258-0.655,1.757-0.978c0.65-0.441,1.1-0.979,1.302-1.655
			c0.214-0.675,0.068-1.38-0.421-2.124l-0.813-1.243l-12.42-9.405c-1.976-1.752-3.582-2.524-4.77-2.261
			c-1.195,0.255-2.706,0.969-4.512,2.173l-16.731,11.001c-1.673,1.233-2.921,2.261-3.738,3.093
			c-0.808,0.832-1.066,2.094-0.778,3.797l3.616,15.209c0.117,0.166,0.176,0.313,0.23,0.479c0.035,0.147,0.084,0.274,0.137,0.343
			c0.113,0.166,0.166,0.352,0.196,0.567c0.136,0.392,0.24,0.715,0.289,0.979c0.048,0.255,0.112,0.44,0.166,0.509
			c0.596,0.92,1.331,1.35,2.192,1.311c0.862-0.039,1.708-0.323,2.534-0.861c0.499-0.333,1.042-0.725,1.63-1.174
			c0.597-0.431,1.195-0.92,1.792-1.439c0.092-0.048,0.17-0.117,0.254-0.166c0.074-0.058,0.166-0.127,0.245-0.156
			c0.528-0.47,1.037-0.9,1.555-1.302c0.504-0.382,1.008-0.754,1.507-1.086c1.15-0.744,2.427-1.115,3.802-1.086
			c1.385,0.049,2.623,0.881,3.709,2.535c0.93,1.409,0.828,2.769-0.303,4.11c-1.13,1.351-2.643,2.643-4.551,3.885
			c-0.495,0.314-1.047,0.665-1.65,0.989c-0.606,0.342-1.149,0.674-1.649,1.007c-0.636,0.294-1.253,0.607-1.86,0.959
			c-0.602,0.353-1.149,0.675-1.645,0.998c-1.194,0.529-2.221,1.077-3.122,1.605c-0.89,0.538-1.625,0.988-2.212,1.36
			c-0.655,0.431-1.448,0.999-2.378,1.655c-0.91,0.675-1.864,1.438-2.818,2.31c-0.578,0.381-1.164,0.802-1.752,1.243
			c-0.602,0.46-1.151,0.91-1.684,1.38c-0.572,0.372-1.115,0.763-1.63,1.144c-0.509,0.411-1.052,0.793-1.619,1.175
			c-1.83,1.204-3.534,2.055-5.148,2.584c-1.609,0.529-2.843,0.118-3.709-1.194l-0.935-1.154c-0.562-1.371-0.793-2.515-0.729-3.406
			c0.053-0.891,0.342-1.556,0.866-2.025c0.166-0.108,0.294-0.186,0.382-0.245c0.333-0.215,0.724-0.421,1.194-0.607
			c0.475-0.186,0.935-0.372,1.405-0.567c0.303-0.088,0.543-0.147,0.734-0.215c0.195-0.088,0.44-0.156,0.744-0.236
			c0.255-0.156,0.509-0.303,0.783-0.421c0.275-0.126,0.539-0.274,0.793-0.43c0.236-0.166,0.485-0.382,0.725-0.655
			c0.23-0.275,0.484-0.558,0.764-0.862c0.44-0.764,0.7-1.703,0.798-2.828c0.083-1.125-0.103-2.476-0.563-4.081L189.785,454.508z
			 M191.894,415.107c0.166,0.245,0.265,0.45,0.304,0.606c0.039,0.147,0.078,0.334,0.103,0.548c0.19,0.47,0.338,0.881,0.445,1.214
			c0.107,0.353,0.215,0.607,0.318,0.764c0.28,0.411,0.715,0.45,1.322,0.117c0.596-0.343,1.443-0.861,2.51-1.565l14.871-9.797
			c0.24-0.166,0.464-0.274,0.66-0.352c0.19-0.059,0.401-0.186,0.645-0.343c0.176-0.107,0.338-0.176,0.48-0.225
			c0.151-0.039,0.274-0.088,0.357-0.136c0.171-0.108,0.294-0.225,0.392-0.353c0.097-0.117,0.117-0.215,0.068-0.304l0.127-0.078
			c-0.112-0.176-0.372-0.411-0.768-0.754c-0.392-0.333-0.862-0.724-1.4-1.194c-0.2-0.108-0.377-0.236-0.514-0.382
			c-0.166-0.127-0.289-0.274-0.396-0.45l-28.552-22.039L191.894,415.107z"/>
	</g>
</g>
</svg>
