<?xml version="1.0" encoding="iso-8859-1"?>
<!-- Generator: Adobe Illustrator 19.0.0, SVG Export Plug-In . SVG Version: 6.00 Build 0)  -->
<svg version="1.1" id="Layer_1" xmlns="http://www.w3.org/2000/svg" xmlns:xlink="http://www.w3.org/1999/xlink" x="0px" y="0px"
	 viewBox="0 0 511.999 511.999" style="enable-background:new 0 0 511.999 511.999;" xml:space="preserve">
<path style="fill:#BAD8E8;" d="M257.522,477.921c-60.688,24.28-121.972-53.975-174.547,30.14c-1.585,2.545-4.319,3.938-7.108,3.938
	c-6.517,0-10.586-7.215-7.086-12.799c58.913-94.234,131.97-16.602,182.526-36.813c25.234-10.086,34.137-28.12,28.366-52.089h17.152
	C302.321,439.632,290.189,464.867,257.522,477.921z"/>
<path style="fill:#17DDC0;" d="M421.409,275.047c-27.98,52.555-78.792,87.689-136.833,87.689
	c-88.238,0-159.768-81.201-159.768-181.368C124.808,81.202,196.339,0,284.577,0c111.82,0,189.062,127.395,149.385,245.817"/>
<path style="fill:#0DBAA1;" d="M425.773,263.87c-95.937,89.11-241.868,12.119-241.868-130.201
	c0-48.897,18.391-92.912,47.741-123.639c-62.448,24.653-107.274,92.049-107.274,171.338c0,93.084,61.775,169.774,141.322,180.158
	l-6.946,34.134c-1.523,7.568,4.264,14.637,11.985,14.637h30.308c7.664,0,13.438-6.97,12.012-14.5l-6.597-34.824
	C359.54,352.543,403.995,314.579,425.773,263.87z"/>
<g>
</g>
<g>
</g>
<g>
</g>
<g>
</g>
<g>
</g>
<g>
</g>
<g>
</g>
<g>
</g>
<g>
</g>
<g>
</g>
<g>
</g>
<g>
</g>
<g>
</g>
<g>
</g>
<g>
</g>
</svg>
