<?xml version="1.0" encoding="utf-8"?>
<!-- Generator: Adobe Illustrator 16.0.3, SVG Export Plug-In . SVG Version: 6.00 Build 0)  -->
<!DOCTYPE svg PUBLIC "-//W3C//DTD SVG 1.1//EN" "http://www.w3.org/Graphics/SVG/1.1/DTD/svg11.dtd">
<svg version="1.1" id="Layer_1" xmlns="http://www.w3.org/2000/svg" xmlns:xlink="http://www.w3.org/1999/xlink" x="0px" y="0px"
	 width="1200px" height="1200px" viewBox="0 0 1200 1200" enable-background="new 0 0 1200 1200" xml:space="preserve">
<g>
	<g>
		<path fill="#FFF048" d="M281.675,938.451c2.191-8.313,8.623-15.103,20.32-16.832c25.204-3.722,50.154-8.688,74.821-14.697
			c0.632-6.74,5.258-13.032,13.977-13.032c5.624,0,9.528,2.634,11.784,6.294c44.646-12.507,88.141-28.905,129.766-49.926
			c34.564-17.456,67.46-37.707,99.154-59.933c32.683-22.925,69.349-45.478,93.778-77.581
			c25.754-33.841,38.894-78.321,52.915-118.021c13.387-37.896,25.135-76.428,34.185-115.602
			c11.64-50.38,18.255-101.67,17.696-152.955c-25.223,119.763-84.689,255.154-217.191,354.512
			C445.351,806.298,247.771,817.235,144.937,812.516c-13.261-0.635-18.143,9.465-19.369,12.567
			c-2.527,6.451-2.364,15.772,5.697,22.604C166.871,877.873,218.027,913.726,281.675,938.451z M409,849.119
			c19.001,0,19.001,29.197,0,29.197C390.001,878.316,390.001,849.119,409,849.119z M333.002,875.396
			c0-8.184,11.091-14.243,18.999-14.597c7.888-0.354,19.001,6.96,19.001,14.597v1.947c0,8.186-11.089,14.242-19.001,14.597
			c-7.883,0.353-18.999-6.962-18.999-14.597V875.396z"/>
		<path fill="#FFF048" d="M882.19,495.432l-0.824,7.996c-2.423,23.863-5.797,56.562-16.444,94.253
			c18.221-10.939,39.208-14.552,59.017-8.156c40.95,13.228,61.238,63.923,45.31,113.236
			c-15.926,49.312-62.033,78.563-102.986,65.339c-27.026-8.729-44.963-33.813-49.521-64.014
			c-13.365,20.734-29.49,41.851-49.378,62.995c-2.876,3.056-6.757,4.595-10.639,4.595c-1.758,0-3.509-0.332-5.178-0.964
			c-19.432,19.031-41.751,35.049-63.91,51.129c-3.509,2.546-7.064,4.992-10.586,7.506c1.603,8.201-2.969,17.825-13.758,17.825
			c-3.312,0-6.007-0.94-8.155-2.429c-8.154,5.595-16.358,11.112-24.663,16.472c1.204,8.029-3.425,17.102-13.896,17.102
			c-3.721,0-6.678-1.17-8.926-3.003c-9.244,5.569-18.646,10.907-28.154,16.076c2.683,6.638,0.196,14.395-6.187,18.078
			c-66.797,38.577-134.414,63.631-193.439,79.896c-2.45,1.819-5.397,2.984-8.597,2.984c-0.675,0-1.366-0.061-2.056-0.157
			c-27.797,7.3-53.443,12.654-75.972,16.559c1.866,0.616,3.754,1.389,5.653,2.446c61.051,33.896,99.198,57.846,200.493,69.008
			c59.923,6.604,264.955-69.262,312.803-108.544c40.525-33.267,77.087-63.577,106.487-94.955
			c31.227-33.335,52.417-75.354,68.227-117.856c17.501-47.062,27.956-94.292,30.45-141.914c-3.11-5.146-2.909-12.26,0.555-17.183
			c0.453-39.293-4.555-78.87-15.727-118.868c-23.928-85.672-57.42-172.159-112.354-242.984c-1.067-1.376-1.858-2.8-2.657-4.221
			c-0.012,1.17,0.008,2.359,0.178,3.625c9.072,67.455,9.967,133.837,2.658,197.312c-0.747,6.518-5.693,11.481-11.819,12.623
			c-1.844,10.921-3.931,21.823-6.244,32.709C878.504,481.951,882.938,488.363,882.19,495.432z M844.516,827.729
			c-8.461,26.198-31.91,42.077-52.373,35.469c-20.464-6.608-30.192-33.205-21.731-59.4c8.462-26.199,31.909-42.08,52.372-35.472
			C843.248,774.935,852.977,801.53,844.516,827.729z"/>
		<path fill="#FFFFFF" d="M866.261,768.1c40.953,13.225,87.061-16.026,102.986-65.339c15.929-49.313-4.361-100.009-45.31-113.236
			c-19.809-6.396-40.796-2.783-59.017,8.156c-9.189,32.529-23.934,68.788-48.179,106.405
			C821.298,734.286,839.235,759.371,866.261,768.1z"/>
		
			<ellipse transform="matrix(-0.9516 -0.3073 0.3073 -0.9516 1325.1053 1840.1049)" fill="#FFFFFF" cx="807.428" cy="815.724" rx="38.936" ry="49.847"/>
		<path fill="#FFBC46" d="M778.188,594.724c-14.02,39.699-27.159,84.182-52.915,118.021c-24.43,32.104-61.094,54.656-93.778,77.581
			c-31.694,22.226-64.588,42.477-99.152,59.933c-41.625,21.021-85.121,37.417-129.766,49.926
			c5.298,8.579,1.385,22.902-11.786,22.902c-10.087,0-14.703-8.38-13.975-16.162c-24.667,6.008-49.619,10.975-74.821,14.695
			c-11.697,1.73-18.131,8.521-20.32,16.834c26.635,10.345,55.489,18.669,86.288,23.873c57.978-15.666,124.811-40.053,190.753-78.144
			c6.971-4.026,15.904-1.642,19.943,5.345c0.347,0.603,0.585,1.236,0.841,1.864c9.509-5.168,18.911-10.505,28.153-16.075
			c-9.117-7.432-6.146-26.197,8.926-26.197c8.327,0,12.947,5.722,13.898,12.098c8.302-5.358,16.509-10.875,24.662-16.472
			c-10.039-6.977-7.329-26.767,8.154-26.767c8.007,0,12.57,5.298,13.757,11.372c3.521-2.516,7.077-4.963,10.586-7.506
			c22.161-16.082,44.48-32.101,63.912-51.131c-1.742-0.657-3.386-1.643-4.824-2.997c-5.877-5.525-6.156-14.764-0.637-20.637
			c91.013-96.751,100.915-194.234,106.229-246.606l0.835-8.121c0.855-8.012,8.019-13.742,16.061-12.979
			c0.944,0.102,1.858,0.305,2.74,0.572c2.312-10.886,4.399-21.788,6.242-32.709c-1.407,0.261-2.854,0.386-4.351,0.208
			c-8.009-0.925-13.76-8.16-12.834-16.172c7.028-61.07,6.16-125.022-2.59-190.076c-1.963-14.613,2.012-28.392,10.565-38.976
			c-0.862-0.777-1.803-1.414-2.756-2.038c-1.544-0.264-3.15-0.283-4.86,0.07c-7.34,1.556-15.674,9.055-16.626,21.858
			c-2.407,32.228-6.957,67.419-14.675,104.056c0.561,51.284-6.055,102.574-17.696,152.955
			C803.321,518.296,791.574,556.826,778.188,594.724z"/>
		<path fill="#FFBC46" d="M1002.19,480.884c11.174,39.998,15.068,79.576,14.615,118.87c2.314-3.294,10.198-5.619,10.198-5.619
			c18.998,0,18.998,29.197,0,29.197c0,0-8.505-2.682-10.752-6.396c-2.494,47.623-12.392,94.852-29.896,141.912
			c-15.809,42.503-36.72,84.523-67.946,117.857c-29.401,31.377-65.824,61.688-106.349,94.954
			c-47.849,39.284-252.811,115.15-312.732,108.546c-101.297-11.164-139.408-35.114-200.46-69.01
			c-1.899-1.055-3.77-1.828-5.636-2.445c-2.644,0.457-5.339,0.943-7.895,1.361c-11.597,1.904-17.093,10.708-18.371,18.314
			c-1.283,7.677,1.063,17.89,11.513,23.523c62.373,33.675,151.674,68.287,254.95,68.294
			c126.908,0.013,274.943-52.229,420.301-222.677c79.79-93.565,120.171-198.537,121.548-306.577
			c-0.453-37.896-4.814-75.883-12.678-113.319c-20.516-87.15-65.793-174.408-135.76-257.542c-8.038-9.552-18.928-9.42-26.435-6.091
			c-6.612,2.93-13.113,9.548-13.227,19.643c0.799,1.419,1.592,2.843,2.657,4.22C944.772,308.725,978.262,395.212,1002.19,480.884z
			 M1037.001,549.366c19,0,19,29.197,0,29.197S1018.001,549.366,1037.001,549.366z"/>
		<path fill="#343539" d="M112.386,869.961c43.144,36.569,108.036,81,189.971,106.585c0.516,0.188,1.008,0.421,1.539,0.579
			c-8.091,1.555-15.919,2.969-23.282,4.177c-22.076,3.622-38.734,20.228-42.435,42.296c-3.715,22.16,6.661,43.374,26.43,54.048
			c66.055,35.651,160.583,72.361,269.863,72.354c133.566-0.012,289.139-54.859,441.472-233.488
			c181.255-212.542,171.245-479.899-26.765-715.184c-8.949-10.623-20.892-16.762-33.577-18.181
			c-0.013-25.964-6.813-91.18-70.913-128.014c-15.065-8.668-34.074-6.171-46.207,6.067l-1.114,1.123
			c-8.656,8.725-12.477,20.672-10.477,32.768c2.007,12.151,9.849,22.713,20.977,28.25l0.941,0.468
			c9.329,4.635,17.531,8.733,23.58,14.821c0.016,0.031,0.03,0.062,0.05,0.094c0.13,0.341,0.235,0.621,0.429,1.117
			c1.709,4.52,4.41,8.658,7.734,12.131c2.119,6.299,2.92,14.263,2.172,24.548c-15.096,8.25-25.738,24.502-27.151,43.415
			c-9.819,131.551-56.001,314.214-220.264,437.387c-160.237,120.162-350.18,130.534-449.103,126.03
			c-21.269-1.091-40.071,11.221-47.861,31.054C90.57,834.319,96.064,856.12,112.386,869.961z M125.564,825.083
			c1.227-3.103,6.108-13.204,19.371-12.567c102.834,4.72,300.414-6.218,467.942-131.836
			c132.499-99.358,191.969-234.749,217.189-354.512c7.719-36.637,12.269-71.828,14.676-104.056
			c0.95-12.802,9.287-20.302,16.625-21.858c1.71-0.354,3.316-0.333,4.862-0.07c0.95,0.624,1.892,1.26,2.754,2.038
			c-8.554,10.584-12.528,24.362-10.565,38.976c8.75,65.054,9.618,129.007,2.591,190.076c-0.928,8.012,4.825,15.248,12.833,16.172
			c1.496,0.178,2.943,0.052,4.351-0.208c6.128-1.142,11.072-6.105,11.82-12.623c7.31-63.475,6.415-129.856-2.66-197.312
			c-0.167-1.265-0.187-2.454-0.177-3.625c0.113-10.095,6.614-16.713,13.227-19.642c7.506-3.33,18.397-3.462,26.435,6.092
			c69.966,83.132,115.242,170.391,135.76,257.541c7.863,37.437,12.225,75.423,12.678,113.32
			c-1.379,108.037-41.758,213.011-121.548,306.575c-145.356,170.449-293.392,222.689-420.301,222.679
			c-103.277-0.007-192.575-34.62-254.949-68.294c-10.449-5.634-12.793-15.847-11.51-23.523c1.278-7.606,6.778-16.41,18.375-18.314
			c2.557-0.42,5.26-0.904,7.902-1.362c22.531-3.904,48.178-9.259,75.973-16.559c0.69,0.097,1.38,0.157,2.055,0.157
			c3.201,0,6.146-1.165,8.599-2.984c59.025-16.265,126.641-41.316,193.438-79.896c6.384-3.684,8.868-11.44,6.187-18.078
			c-0.256-0.628-0.491-1.262-0.843-1.866c-4.037-6.984-12.971-9.368-19.943-5.343c-65.94,38.091-132.773,62.479-190.751,78.144
			c-30.799-5.205-59.652-13.529-86.288-23.873c-63.647-24.726-114.803-60.58-150.412-90.767
			C123.199,840.855,123.038,831.531,125.564,825.083z"/>
		<path fill="#343539" d="M767.363,767.081c19.888-21.143,36.013-42.261,49.38-62.995c24.245-37.617,38.989-73.876,48.179-106.403
			c10.646-37.691,14.021-70.391,16.444-94.254l0.824-7.996c0.748-7.069-3.686-13.481-10.237-15.485
			c-0.882-0.269-1.796-0.471-2.74-0.572c-8.042-0.764-15.205,4.967-16.061,12.979l-0.835,8.121
			c-5.314,52.371-15.217,149.854-106.231,246.604c-5.518,5.875-5.238,15.111,0.639,20.638c1.437,1.354,3.08,2.339,4.822,2.996
			c1.669,0.632,3.42,0.967,5.178,0.967C760.608,771.679,764.487,770.139,767.363,767.081z"/>
		<path fill="#343539" d="M390.79,923.086c13.171,0,17.084-14.325,11.786-22.904c-2.258-3.658-6.16-6.294-11.786-6.294
			c-8.717,0-13.345,6.294-13.975,13.034C376.087,914.706,380.703,923.086,390.79,923.086z"/>
		<path fill="#343539" d="M352.001,891.942c7.912-0.356,19.001-6.413,19.001-14.599v-1.945c0-7.639-11.113-14.951-19.001-14.599
			c-7.908,0.355-18.999,6.415-18.999,14.599v1.945C333.002,884.98,344.118,892.295,352.001,891.942z"/>
		<path fill="#343539" d="M409,878.316c19.001,0,19.001-29.197,0-29.197C390.001,849.119,390.001,878.316,409,878.316z"/>
		<path fill="#343539" d="M1037.001,578.563c19,0,19-29.197,0-29.197S1018.001,578.563,1037.001,578.563z"/>
		<path fill="#343539" d="M1027.001,623.332c19,0,19-29.197,0-29.197c0,0-7.882,2.325-10.196,5.619
			c-3.465,4.922-4.223,12.034-1.11,17.182C1017.943,620.65,1027.001,623.332,1027.001,623.332z"/>
		<path fill="#343539" d="M630.477,861.217c-0.951-6.376-5.571-12.098-13.898-12.098c-15.071,0-18.043,18.763-8.926,26.197
			c2.248,1.83,5.207,3,8.926,3C627.051,878.316,631.68,869.247,630.477,861.217z"/>
		<path fill="#343539" d="M677.05,829.349c-1.187-6.072-5.75-11.37-13.757-11.37c-15.483,0-18.193,19.788-8.154,26.765
			c2.146,1.49,4.844,2.429,8.154,2.429C674.083,847.175,678.653,837.55,677.05,829.349z"/>
	</g>
</g>
</svg>
