<?xml version="1.0" encoding="utf-8"?>
<!-- Designed by Vexels.com - 2016 All Rights Reserved - https://vexels.com/terms-and-conditions/  -->

<svg version="1.1" id="Capa_1" xmlns="http://www.w3.org/2000/svg" xmlns:xlink="http://www.w3.org/1999/xlink" x="0px" y="0px"
	 width="1200px" height="1200px" viewBox="0 0 1200 1200" enable-background="new 0 0 1200 1200" xml:space="preserve">
<g>
	<g>
		<g>
			<path fill="#342F30" d="M1033.028,404.128c-64.256-72.771-130.401-113.226-133.291-114.976
				c-9.317-5.535-17.317-8.235-24.413-8.235c-15.282,0-22,12.867-23.043,22.332C796.736,435.928,719.608,438.34,719.228,438.385
				c-22.521-1.09-26.776-26.069-27.534-33.547c55.072-95.25,15.376-120.893,13.627-121.979l-3.17-1.942l-3.456,1.419
				c-7.613,3.03-33.78,26.4-46.035,37.57c-16.606-7.426-35.013-11.217-54.792-11.217c-37.664,0-70.215,13.485-83.513,19.875
				c-13.673-18.312-44.238-35.769-48.072-37.903l-5.582-3.118l-3.928,5.059c-24.364,31.329,28.436,115.452,35.773,126.812
				c3.36,7.095,1.276,14.476,0.281,17.221c-11.686,10.221-23.99,15.377-36.572,15.377c-62.268,0-119.097-120.42-119.711-121.693
				c-8.562-18.077-19.162-21.911-26.495-21.911c-8.281,0-14.431,4.78-16.468,6.579C83.168,454.706,52.27,767.747,51.986,770.914
				L50,792.825l14.905-16.227c42.252-45.947,88.477-69.271,137.4-69.271c59.052,0,101.779,34.821,102.206,35.201l4.588,3.835
				l4.73-3.689c32.841-25.458,65.771-38.328,97.945-38.328c124.913,0,189.987,189.046,190.792,191.032l9.788,23.705l4.404-25.267
				c22.899-131.155,92.533-196.521,170.937-196.521c46.938,0,86.489,24.984,86.868,25.219l5.208,3.314l4.21-4.444
				c31.938-33.741,70.168-50.819,113.654-50.819c73.765,0,138.255,49.442,138.915,49.963l10.742,8.331l1.23-13.539
				C1158.412,608.481,1118.479,500.89,1033.028,404.128z"/>
			<path opacity="0.4" fill="#FFFFFF" enable-background="new    " d="M673.905,364.34c-5.111,6.213-10.738,18.237,3.459,12.734
				c8.734-3.386,13.021-10.982,18.082-18.803c19.754-47.453,12.148-65.315,7.12-69.411
				C712.08,313.372,689.007,345.973,673.905,364.34z"/>
			<path fill="#342F30" d="M1033.028,404.128c-64.256-72.771-130.401-113.226-133.291-114.976
				c-9.317-5.535-17.317-8.235-24.413-8.235c-15.282,0-22,12.867-23.043,22.332C796.736,435.928,719.608,438.34,719.228,438.385
				c-17.559-0.851-23.994-16.2-26.348-26.476c-4.426,2.615-9.099,4.885-14.069,6.687c-23.949,8.686-33.423-11.929-30.696-32.597
				c1.918-14.572,12.141-22.82,20.222-34.521c13.459-19.479,20.218-38.693,18.957-61.478c-11.044,8.631-26.162,22.184-34.637,29.905
				c-16.605-7.426-35.013-11.217-54.791-11.217c-37.664,0-70.215,13.485-83.514,19.875c-13.672-18.312-44.238-35.769-48.072-37.903
				l-5.582-3.118l-3.928,5.059c-24.366,31.329,28.436,115.452,35.773,126.812c3.359,7.095,1.276,14.476,0.281,17.221
				c-11.686,10.221-23.99,15.377-36.573,15.377c-62.268,0-119.097-120.42-119.71-121.693c-8.562-18.077-19.162-21.911-26.496-21.911
				c-8.281,0-14.43,4.78-16.468,6.579C83.168,454.706,52.27,767.747,51.986,770.914L50,792.825l14.905-16.227
				c42.252-45.947,88.477-69.271,137.4-69.271c59.052,0,101.779,34.821,102.206,35.201l4.588,3.835l4.73-3.689
				c32.841-25.458,65.771-38.328,97.945-38.328c124.913,0,189.987,189.046,190.792,191.032l9.788,23.705l4.404-25.267
				c22.899-131.155,92.533-196.521,170.937-196.521c46.938,0,86.489,24.984,86.868,25.219l5.208,3.314l4.21-4.444
				c31.938-33.741,70.168-50.819,113.654-50.819c73.765,0,138.255,49.442,138.915,49.963l10.742,8.331l1.23-13.539
				C1158.412,608.481,1118.479,500.89,1033.028,404.128z"/>
			<path opacity="0.4" fill="#231F20" enable-background="new    " d="M582.123,814.313c-15.844-33.214-36.651-65.764-63.786-90.944
				c-29.224-27.13-64.897-46.622-105.93-45.282c-22.419,0.729-45.396,5.36-66.454,13.203c-13.879,5.169-36.345,10.944-45.734,23.391
				c-3.466,4.592-8.558,7.235-14.297,5.153c-16.651-6.054-32.414-16.706-49.742-20.659c-23.823-5.434-48.636-5.228-72.28,1.295
				c-30.764,8.491-72.545,25.773-87.626,57.101c-0.79,3.192-1.576,6.386-2.296,9.613c39.764-39.693,82.879-59.856,128.329-59.856
				c59.052,0,101.78,34.821,102.206,35.201l4.589,3.835l4.729-3.689c32.841-25.458,65.771-38.328,97.945-38.328
				c124.913,0,189.987,189.046,190.792,191.032l9.789,23.705l-0.052-3.826C605.254,869.77,593.509,838.192,582.123,814.313z"/>
			<path opacity="0.4" fill="#231F20" enable-background="new    " d="M594.11,316.432c14.9,4.448,28.043,10.337,40.172,20.336
				c4.746,3.909,8.261,9.319,11.506,14.906c10.566-15.197,18.962-31.567,32.57-45.227c8.321-8.354,17.035-16.939,26.846-23.658
				l-3.054-1.871l-3.456,1.419c-7.613,3.03-33.78,26.4-46.036,37.57c-16.605-7.426-35.013-11.217-54.791-11.217
				c-14.42,0-28.08,1.988-40.209,4.784C569.823,312.86,582.378,312.929,594.11,316.432z"/>
			<path opacity="0.4" fill="#231F20" enable-background="new    " d="M696.019,366.091c-7.199,14.41-15.421,29.813-16.358,46.229
				c-0.642,11.312-2.249,26.17,9.741,32.912c11.177,6.283,25.163,13.27,38.387,9.416c23.523-6.857,40.789-27.354,55.852-48.385
				c-35.188,31.117-64.181,32.093-64.412,32.121c-22.521-1.09-26.774-26.069-27.534-33.547
				c30.304-52.41,31.896-83.717,26.924-101.483c-0.688,0.417-1.359,0.92-2.037,1.373
				C715.643,326.538,706.004,346.102,696.019,366.091z"/>
			<path opacity="0.4" fill="#231F20" enable-background="new    " d="M341.928,476.764c-10.433-7.845-20.123-17.299-27.775-28.102
				c-24.162,40.236-45.579,81.647-58.742,127.696c-9.625,33.66-15.618,67.601-19.786,101.819
				c16.74,4.058,31.733,11.081,47.37,17.924c5.031-23.314,12.309-46.123,20.497-67.419c10.54-27.403,22.886-53.96,37.526-79.43
				c10.358-18.025,20.805-38.781,35.268-54.673C364.03,490.469,352.401,484.638,341.928,476.764z"/>
			<path opacity="0.4" fill="#231F20" enable-background="new    " d="M610.627,757.748c-1.511-20.979-7.107-40.818-12.654-61.049
				c-7.678-28.006-13.997-56.928-10.045-86.14c3.812-28.217,13.756-54.43,31.238-77.079c14.441-18.704,27.25-36.911,37.124-57.333
				c-7.994-4.492-14.296-10.404-18.456-17.84c-19.554,7.867-44.443,4.838-55.033-15.389c-1.892-3.616-3.546-7.729-4.892-12.077
				c-4.135,13.691-11.681,26.342-26.239,30.899c-8.636,2.707-18.428,0.725-27.052-3.835c-2.314,10.035-7.989,18.057-15.575,24.437
				c-25.456,37.006-39.762,88.889-47.292,132.312c-1.978,11.399-3.397,22.771-4.456,34.129c13.304,3.429,26.079,8.825,37.726,16.6
				c30.601,20.438,55.704,48.579,74.206,80.342c9.88,16.964,18.096,34.567,25.667,52.674c2.689,6.438,5.121,14.118,8.031,21.597
				c0.983-3.759,2.022-7.427,3.106-11.031C607.154,791.84,611.862,774.914,610.627,757.748z"/>
			<path opacity="0.4" fill="#231F20" enable-background="new    " d="M854.511,544.041c20.812,33.639,37.678,70.723,46.868,109.515
				c13.122-5.032,26.49-9.251,40.074-12.701c-3.285-43.676-7.86-87.054-20.788-129.841c-9.196-30.423-20.018-61.455-34.607-89.743
				c-11.479-22.243-27.522-40.54-42.019-60.171c-16.135,20.146-29.986,42.729-45.577,62.486
				c-6.191,7.842-13.488,16.897-21.67,25.447C810.468,471.137,834.634,511.899,854.511,544.041z"/>
			<path fill="#342F30" d="M515.069,361.501c17.919-13.986,44.057-22.997,63.792-11.63c8.559,4.935,14.314,13.197,17.679,22.585
				c3.443-7.474,9.043-13.702,17.568-17.456c0.646-0.288,1.321-0.444,2.004-0.549c-3.021-2.962-6.505-5.602-10.941-7.647
				c-13.367-6.187-27.908-10.406-42.851-9.527c-17.768,1.038-34.501,7.522-51.765,10.025c0.185,0.675,0.352,1.36,0.544,2.034
				C512.306,353.471,513.655,357.513,515.069,361.501z"/>
			<path opacity="0.4" fill="#231F20" enable-background="new    " d="M1033.028,404.128
				c-64.256-72.771-130.401-113.226-133.291-114.976c-9.317-5.535-17.317-8.235-24.413-8.235c-1.927,0-3.718,0.207-5.38,0.582
				c1.073-0.01,2.126,0.134,3.101,0.508c34.156,13.119,59.647,41.157,82.364,69.028c23.46,28.786,45.731,58.58,68.836,87.662
				c26.748,33.666,51.256,69.5,71.238,107.634c18.521,35.35,26.584,71.935,35.045,110.646c2.447,11.21-10.35,22.803-19.869,13.344
				c-26.35-26.208-67.805-18.573-101.012-13.685c-43.504,6.403-85.983,15.033-125.221,35.734c-6.39,3.375-15.364,2.408-18.989-4.768
				c-12.584-24.891-65.685-12.792-86.153-5.608c-19.772,6.93-38.189,16.504-54.982,29.091c-4.225,3.162-9.12,6.585-14.068,10.291
				c23.661-16.039,50.019-24.084,77.465-24.084c46.937,0,86.488,24.984,86.867,25.219l5.208,3.314l4.21-4.444
				c31.938-33.741,70.168-50.819,113.654-50.819c73.766,0,138.256,49.442,138.916,49.963l10.742,8.331l1.229-13.539
				C1158.412,608.481,1118.479,500.89,1033.028,404.128z"/>
			<path opacity="0.4" fill="#231F20" enable-background="new    " d="M125.905,555.509c24.384-49.773,49.653-87.319,79.544-133.906
				c20.117-31.364,68.778-79.618,103.861-96.479c4.625-2.217,8.377-1.357,9.731,3.529c6.866,24.698,8.146,33.03,17.756,56.734
				c7.436,18.345,21.972,52.412,38.182,64.578c28.028,21.047,42.301,30.246,76.729,24.678c16.621-2.688,35.208-6.496,49.409-16.078
				c26.334-17.768,2.376-55.23-5.786-77.096c-10.317-27.659-15.995-56.204-19.715-85.228c-4.69-2.944-8.203-4.944-9.337-5.577
				l-5.582-3.119l-3.928,5.059c-24.365,31.329,28.436,115.452,35.773,126.812c3.359,7.095,1.276,14.477,0.281,17.221
				c-11.686,10.221-23.99,15.377-36.573,15.377c-62.268,0-119.097-120.419-119.71-121.693c-8.562-18.077-19.162-21.91-26.496-21.91
				c-8.281,0-14.43,4.779-16.468,6.578C121.139,429.495,69.279,660.366,56.017,741.721
				C72.156,677.614,98.701,611.049,125.905,555.509z"/>
			<g>
				<g>
					<path fill="#FFD107" d="M630.798,361.687c-15.848,0-28.768,12.869-28.768,28.77c0,15.847,12.92,28.763,28.768,28.763
						c15.901,0,28.77-12.916,28.77-28.763C659.568,374.554,646.699,361.687,630.798,361.687z M630.798,404.368
						c-7.666,0-13.914-6.246-13.914-13.912s6.248-13.914,13.914-13.914s13.907,6.247,13.907,13.914
						C644.705,398.122,638.464,404.368,630.798,404.368z"/>
					<path fill="#231F20" d="M644.705,390.457c0,7.666-6.241,13.913-13.907,13.913s-13.914-6.247-13.914-13.913
						s6.248-13.914,13.914-13.914S644.705,382.791,644.705,390.457z"/>
				</g>
				<g>
					<path fill="#FFD107" d="M554.003,361.687c-15.895,0-28.814,12.869-28.814,28.77c0,15.847,12.919,28.763,28.814,28.763
						c15.854,0,28.769-12.916,28.769-28.763C582.771,374.554,569.856,361.687,554.003,361.687z M554.003,404.368
						c-7.711,0-13.954-6.246-13.954-13.912s6.243-13.914,13.954-13.914c7.666,0,13.867,6.247,13.867,13.914
						C567.869,398.122,561.668,404.368,554.003,404.368z"/>
					<path opacity="0.4" fill="#231F20" enable-background="new    " d="M537.047,407.177c-5.97-7.762-7.626-18.298-4.543-27.576
						c1.94-5.84,8.127-12.374,15.402-16.866c-11.465,3.795-19.759,14.565-19.759,27.299c0,14.888,11.398,27.179,25.958,28.621
						C547.571,416.614,541.827,413.396,537.047,407.177z"/>
					<path opacity="0.4" fill="#231F20" enable-background="new    " d="M613.757,406.023c-5.582-7.256-7.126-17.105-4.247-25.784
						c1.815-5.457,7.598-11.561,14.394-15.755c-10.715,3.536-18.468,13.611-18.468,25.514c0,13.917,10.659,25.415,24.273,26.755
						C623.594,414.846,618.225,411.834,613.757,406.023z"/>
					<path fill="#231F20" d="M567.869,390.457c0,7.666-6.201,13.913-13.867,13.913c-7.711,0-13.954-6.247-13.954-13.913
						s6.243-13.914,13.954-13.914C561.668,376.542,567.869,382.791,567.869,390.457z"/>
				</g>
			</g>
			<g opacity="0.4">
				<path fill="#FFFFFF" d="M314.445,356.905l-31.939,24.368c-1.32,0.998-131.96,102.629-162.101,307.885l-2.131,14.527
					l12.116-8.326c0.282-0.195,29.521-20.018,71.87-18.548l6.815,0.23l-0.143-6.811c-0.045-1.515-3.027-155.809,82.756-280.25
					L314.445,356.905z"/>
			</g>
			<g opacity="0.4">
				<path fill="#FFFFFF" d="M465.61,458.757l-23.542,17.962c-0.975,0.733-97.265,75.641-119.475,226.93l-1.574,10.701l8.93-6.136
					c0.208-0.141,21.763-14.749,52.975-13.667l5.023,0.176l-0.106-5.027c-0.037-1.113-2.233-114.843,60.993-206.56L465.61,458.757z"
					/>
			</g>
			<g opacity="0.4">
				<path fill="#FFFFFF" d="M1115.358,656.083c-1.607-170.95-213.821-331.301-222.808-338.02l-24.088-17.981l-9.838-7.334
					l8.421,12.822l14.809,22.521c106.177,161.63,106.32,306.794,106.32,309.021l-0.097,8.279l8.235-0.805
					c6.671-0.664,13.482-0.993,20.253-0.993c51.192,0,87.483,18.927,87.862,19.117l11.023,5.913L1115.358,656.083z"/>
			</g>
		</g>
		<g opacity="0.4">
			<path fill="#FFFFFF" d="M743.717,465.411c63.23,91.716,61.033,205.442,60.999,206.558l-0.107,5.027l5.021-0.176
				c31.211-1.082,52.768,13.53,52.976,13.667l8.927,6.137l-1.571-10.7c-22.211-151.29-118.506-226.195-119.476-226.932
				l-23.543-17.959L743.717,465.411z"/>
		</g>
		<g>
			<path fill="#FFFFFF" d="M652.571,380.678c-2.636,5.345-9.104,7.545-14.453,4.911c-5.35-2.635-7.546-9.103-4.913-14.453
				c2.636-5.351,9.104-7.552,14.449-4.917C653.008,368.862,655.205,375.328,652.571,380.678z"/>
		</g>
		<g>
			<path fill="#FFFFFF" d="M580.33,382.502c-2.895,5.888-10.025,8.309-15.917,5.406c-5.896-2.901-8.317-10.028-5.416-15.923
				c2.904-5.895,10.033-8.318,15.919-5.417C580.818,369.482,583.238,376.607,580.33,382.502z"/>
		</g>
	</g>
</g>
</svg>
