<?xml version="1.0" encoding="utf-8"?>
<!--Designed by Vexels.com - 2017 All Rights Reserved - https://vexels.com/terms-and-conditions/-->

<svg version="1.1" id="Capa_1" xmlns="http://www.w3.org/2000/svg" xmlns:xlink="http://www.w3.org/1999/xlink" x="0px" y="0px"
	 width="1200px" height="1200px" viewBox="0 0 1200 1200" enable-background="new 0 0 1200 1200" xml:space="preserve">
<g>
	<path fill="#5B3734" d="M1112.925,312.846c-14.727,12.227-33.039,20.474-53.473,22.857
		c-17.168,1.986-421.281,49.104-512.617,58.711c-45.063,4.757-126.227,79.932-144.73,134.074
		c-28.465,83.298-150.91,464.942-152.148,468.789c-17.297,53.883-74.969,83.495-128.793,66.236
		c-53.852-17.281-83.512-74.945-66.246-128.797c5.082-15.775,124.281-387.357,153.383-472.471
		c39.926-116.827,179.984-257.075,317.113-271.515c90.184-9.483,506.113-57.971,510.305-58.464
		c56.184-6.548,107.027,33.677,113.586,89.853C1153.46,257.863,1138.702,291.459,1112.925,312.846z"/>
	<g>
		<path fill="#C66A63" d="M327.983,755.031c30.672-94.876,61.551-189.78,74.121-226.543c6.379-18.635,20.258-39.75,37.461-59.646
			L275.542,346.098c-30.598,37.788-54.262,78.181-67.242,116.148c-13.578,39.735-46.789,141.876-78.875,241.118L327.983,755.031z"/>
		<path fill="#C66A63" d="M808.179,158.664c-68.375,7.899-139.922,16.112-196.055,22.457l94.387,195.377
			c39.793-4.534,82.5-9.456,124.047-14.247L808.179,158.664z"/>
	</g>
	<path fill="#E28F8A" d="M84.089,939.539c-1.285,0.483-2.738,0.552-4.152,0.096c-3.328-1.065-5.16-4.627-4.086-7.965
		c46.109-143.567,126.965-394.671,150.422-463.281c29.637-86.734,127.652-201.699,240.371-243.963
		c20.695-7.754,41.137-12.74,60.758-14.802c3.477-0.372,6.594,2.151,6.961,5.631c0.355,3.475-2.176,6.574-5.637,6.961
		c-18.559,1.95-37.949,6.686-57.637,14.067C361.882,277.23,266.948,388.538,238.257,472.489
		c-23.422,68.505-104.258,319.527-150.355,463.055C87.28,937.463,85.839,938.888,84.089,939.539z"/>
</g>
</svg>
