<?xml version="1.0" encoding="iso-8859-1"?>
<!-- Generator: Adobe Illustrator 18.0.0, SVG Export Plug-In . SVG Version: 6.00 Build 0)  -->
<!DOCTYPE svg PUBLIC "-//W3C//DTD SVG 1.1//EN" "http://www.w3.org/Graphics/SVG/1.1/DTD/svg11.dtd">
<svg version="1.1" id="Capa_1" xmlns="http://www.w3.org/2000/svg" xmlns:xlink="http://www.w3.org/1999/xlink" x="0px" y="0px"
	 viewBox="0 0 512 512" style="enable-background:new 0 0 512 512;" xml:space="preserve">
<g>
	<path style="fill:#6EBF5D;" d="M215.074,470.809l4.148,4.226c3.078,3.156,7.297,4.964,11.574,4.964h50.406
		c4.277,0,8.496-1.808,11.574-4.964l4.149-4.226C318.758,448.646,336,431.138,336,376.002c0-60.421-21.684-98.389-37.512-137.798
		l-0.016-0.031l-5.18-12.89C284.445,203.369,280,192.357,280,168.006c0-12.742,3.625-27.8,7.461-43.741
		c3.77-15.683,7.668-31.91,8.41-47.128c1.137-23.265-16.102-43.902-37.645-45.069c-0.746-0.039-1.488-0.059-2.23-0.059
		c-10.273,0-19.957,3.852-27.477,10.972C220.445,50.63,216,60.938,216,72.008c0,12.746,3.621,27.804,7.453,43.741
		c4.203,17.465,8.547,35.523,8.547,52.257c0,24.351-4.445,35.363-13.305,57.3l-5.168,12.867
		C197.684,277.614,176,315.582,176,376.003C176,431.138,193.242,448.646,215.074,470.809z"/>
	<path style="fill:#FFFFFF;" d="M295.994,232l-2.701-6.723c-4-9.907-6.699-17.09-9.293-25.277h-56
		c-2.625,8.688-5.298,15.381-9.305,25.301L216.005,232H295.994z"/>
	<path style="fill:#FFFFFF;" d="M280.184,176c-0.121-3-0.184-5.163-0.184-8c0-7.324,1.201-15,2.948-24h-53.319
		c1.426,8,2.371,16.222,2.371,24c0,2.837-0.063,5-0.184,8H280.184z"/>
</g>
</svg>
