<?xml version="1.0" encoding="iso-8859-1"?>
<!-- Generator: Adobe Illustrator 19.0.0, SVG Export Plug-In . SVG Version: 6.00 Build 0)  -->
<svg version="1.1" id="Layer_1" xmlns="http://www.w3.org/2000/svg" xmlns:xlink="http://www.w3.org/1999/xlink" x="0px" y="0px"
	 viewBox="0 0 512 512" style="enable-background:new 0 0 512 512;" xml:space="preserve">
<path style="fill:#FFD77D;" d="M441.379,251.586H70.621c-26.483,17.655-44.138,51.843-44.138,79.448
	c0,26.483,17.655,88.276,97.103,88.276C220.69,419.31,256,313.379,256,313.379S291.31,419.31,388.414,419.31
	c79.448,0,97.103-61.793,97.103-88.276C485.517,303.43,467.862,269.241,441.379,251.586z"/>
<path style="fill:#FFC855;" d="M512,119.172c0,0-8.828-26.483-61.793-26.483c-79.448,0-158.897,97.103-194.207,141.241
	C220.69,189.793,141.241,92.69,61.793,92.69C8.828,92.69,0,119.172,0,119.172s17.655,8.828,17.655,35.31
	c0,17.655-11.055,63.422,8.828,88.276C61.793,286.897,256,260.414,256,260.414s194.207,26.483,229.517-17.655
	c19.884-24.854,8.828-70.621,8.828-88.276C494.345,128,512,119.172,512,119.172z"/>
<path style="fill:#FFAF41;" d="M16.986,146.443c0.382,2.5,0.669,5.121,0.669,8.04c0,2.624-0.256,5.926-0.607,9.631
	c78.343-5.653,159.454,27.719,235.18,96.786c2.374-0.298,3.772-0.486,3.772-0.486v-19.933
	C179.298,173.344,97.172,141.017,16.986,146.443z"/>
<circle style="fill:#FF9B37;" cx="114.759" cy="322.207" r="17.655"/>
<path style="fill:#FFAF41;" d="M495.013,146.443c-0.382,2.5-0.669,5.121-0.669,8.04c0,2.624,0.256,5.926,0.607,9.631
	c-78.343-5.653-159.454,27.719-235.18,96.786c-2.374-0.298-3.772-0.486-3.772-0.486v-19.933
	C332.702,173.344,414.827,141.017,495.013,146.443z"/>
<circle style="fill:#FF9B37;" cx="397.241" cy="322.207" r="17.655"/>
<path style="fill:#6B5B6B;" d="M256,229.517c-2.155,0-4-1.56-4.353-3.69c-8.5-50.978-42.56-85.535-42.905-85.879
	c-1.725-1.725-1.725-4.518,0-6.241c1.725-1.724,4.518-1.724,6.241,0c1.302,1.302,28.353,28.75,41.017,71.767
	c12.664-43.017,39.715-70.465,41.017-71.767c1.725-1.724,4.518-1.724,6.241,0c1.725,1.72,1.725,4.513,0,6.241
	c-0.345,0.341-34.431,35.017-42.905,85.879C260,227.957,258.155,229.517,256,229.517z"/>
<path style="fill:#FFB441;" d="M256,357.517c-4.879,0-8.828-3.953-8.828-8.828v-61.793c0-4.875,3.948-8.828,8.828-8.828
	c4.879,0,8.828,3.953,8.828,8.828v61.793C264.828,353.565,260.879,357.517,256,357.517z"/>
<path style="fill:#463246;" d="M256,242.759L256,242.759c-4.875,0-8.828-3.953-8.828-8.828v-17.655c0-4.875,3.953-8.828,8.828-8.828
	l0,0c4.875,0,8.828,3.953,8.828,8.828v17.655C264.828,238.806,260.875,242.759,256,242.759z"/>
<path style="fill:#5A464B;" d="M256,295.724L256,295.724c-9.751,0-17.655-7.904-17.655-17.655v-35.31
	c0-9.751,7.904-17.655,17.655-17.655l0,0c9.751,0,17.655,7.904,17.655,17.655v35.31C273.655,287.82,265.751,295.724,256,295.724z"/>
<g>
</g>
<g>
</g>
<g>
</g>
<g>
</g>
<g>
</g>
<g>
</g>
<g>
</g>
<g>
</g>
<g>
</g>
<g>
</g>
<g>
</g>
<g>
</g>
<g>
</g>
<g>
</g>
<g>
</g>
</svg>
