<?xml version="1.0" encoding="iso-8859-1"?>
<!-- Generator: Adobe Illustrator 19.0.0, SVG Export Plug-In . SVG Version: 6.00 Build 0)  -->
<svg version="1.1" id="Layer_1" xmlns="http://www.w3.org/2000/svg" xmlns:xlink="http://www.w3.org/1999/xlink" x="0px" y="0px"
	 viewBox="0 0 512 512" style="enable-background:new 0 0 512 512;" xml:space="preserve">
<path style="fill:#FF9B5F;" d="M316.804,37.907v16.34c86.779,0,157.379,70.6,157.379,157.379V503.83h16.34V211.626
	C490.523,115.837,412.594,37.907,316.804,37.907z"/>
<g>
	<path style="fill:#FFCC3D;" d="M143.085,211.626h16.34c0-86.779,70.6-157.379,157.379-157.379v-16.34
		C221.015,37.907,143.085,115.837,143.085,211.626z"/>
	<rect x="143.088" y="357.725" style="fill:#FFCC3D;" width="16.34" height="146.105"/>
</g>
<g>
	<path style="fill:#FFBB02;" d="M225.645,503.83h-16.34V211.626c0-45.679,10.745-88.745,30.257-121.264
		c20.296-33.826,47.728-52.455,77.242-52.455v16.34c-23.549,0-46.005,15.811-63.231,44.522
		c-18.01,30.016-27.929,70.097-27.929,112.857V503.83H225.645z"/>
	<path style="fill:#FFBB02;" d="M358.044,203.456c-0.4-41.682-3.849-80.655-9.816-110.493
		c-7.512-37.561-17.497-55.056-31.424-55.056c-13.926,0-23.911,17.495-31.424,55.056c-5.967,29.838-9.418,68.811-9.816,110.493
		h-58.089v16.34h264.877v-16.34H358.044z M300.578,100.453c6.873-36.977,14.514-44.711,16.227-46.018
		c1.714,1.307,9.354,9.041,16.227,46.018c5.247,28.237,8.292,64.549,8.67,103.002h-49.795
		C292.286,165.002,295.33,128.691,300.578,100.453z"/>
	<polygon style="fill:#FFBB02;" points="217.475,365.898 275.525,365.898 275.525,503.83 291.865,503.83 291.865,365.898 
		341.744,365.898 341.744,503.83 358.084,503.83 358.084,365.898 416.134,365.898 416.134,349.558 217.475,349.558 	"/>
	<path style="fill:#FFBB02;" d="M316.804,0c-7.347,0-14.226,2.889-19.368,8.135c-3.159,3.222-3.108,8.396,0.114,11.554
		c3.221,3.158,8.396,3.109,11.553-0.114c2.045-2.086,4.78-3.234,7.7-3.234c5.946,0,10.783,4.837,10.783,10.784
		c0,5.946-4.837,10.783-10.783,10.783v16.34c14.956,0,27.123-12.167,27.123-27.123C343.928,12.167,331.761,0,316.804,0z"/>
	<path style="fill:#FFBB02;" d="M424.304,503.83h-16.34V211.626c0-42.76-9.918-82.841-27.929-112.857
		c-17.226-28.71-39.682-44.522-63.231-44.522v-16.34c29.515,0,56.946,18.629,77.242,52.455
		c19.512,32.52,30.257,75.585,30.257,121.264V503.83H424.304z"/>
</g>
<path style="fill:#FFCC3D;" d="M225.645,219.796v-16.34H18.815c-4.513,0-8.17,3.658-8.17,8.17v146.102c0,4.512,3.657,8.17,8.17,8.17
	h206.828v-16.34h-66.219V219.796H225.645z M26.986,219.796h49.88v129.761h-49.88V219.796z M143.085,349.558H93.207V219.796h49.879
	L143.085,349.558L143.085,349.558z"/>
<polygon style="fill:#FFBB02;" points="449.244,495.66 184.365,495.66 173.471,503.83 184.365,512 449.244,512 460.138,503.83 "/>
<path style="fill:#FF9B5F;" d="M493.185,495.66h-43.94V512h43.94c4.513,0,8.17-3.658,8.17-8.17S497.697,495.66,493.185,495.66z"/>
<path style="fill:#FFCC3D;" d="M140.424,495.66h43.94V512h-43.94c-4.513,0-8.17-3.658-8.17-8.17S135.912,495.66,140.424,495.66z"/>
<g>
</g>
<g>
</g>
<g>
</g>
<g>
</g>
<g>
</g>
<g>
</g>
<g>
</g>
<g>
</g>
<g>
</g>
<g>
</g>
<g>
</g>
<g>
</g>
<g>
</g>
<g>
</g>
<g>
</g>
</svg>
