<?xml version="1.0" encoding="iso-8859-1"?>
<!-- Generator: Adobe Illustrator 19.0.0, SVG Export Plug-In . SVG Version: 6.00 Build 0)  -->
<svg version="1.1" id="Layer_1" xmlns="http://www.w3.org/2000/svg" xmlns:xlink="http://www.w3.org/1999/xlink" x="0px" y="0px"
	 viewBox="0 0 511.46 511.46" style="enable-background:new 0 0 511.46 511.46;" xml:space="preserve">
<g>
	<path style="fill:#FFC473;" d="M186.53,507.057c-5.871,5.871-15.39,5.871-21.261,0L56.67,398.458
		c-5.871-5.871-5.871-15.39,0-21.261c5.871-5.871,15.39-5.871,21.261,0l108.597,108.597
		C192.401,491.666,192.401,501.185,186.53,507.057z"/>
	<path style="fill:#FFC473;" d="M248.245,445.34c-5.871,5.871-15.39,5.871-21.261,0L118.387,336.743
		c-5.871-5.871-5.871-15.39,0-21.261c5.871-5.871,15.39-5.871,21.261,0l108.597,108.597
		C254.116,429.95,254.116,439.47,248.245,445.34z"/>
	<path style="fill:#FFC473;" d="M313.979,379.607c-5.871,5.871-15.39,5.871-21.261,0L184.119,271.009
		c-5.871-5.871-5.871-15.39,0-21.261c5.871-5.871,15.39-5.871,21.261,0l108.598,108.597
		C319.85,364.217,319.85,373.736,313.979,379.607z"/>
	<path style="fill:#FFC473;" d="M281.335,412.251c-5.871,5.871-15.39,5.871-21.261,0L151.475,303.654
		c-5.871-5.871-5.871-15.39,0-21.261c5.871-5.871,15.39-5.871,21.261,0L281.335,390.99
		C287.205,396.862,287.205,406.38,281.335,412.251z"/>
	<path style="fill:#FFC473;" d="M236.39,218.74l108.595,108.595c5.875,5.875,5.868,15.393,0,21.261
		c-5.875,5.875-15.386,5.875-21.261,0L215.129,240.001c-5.868-5.868-5.875-15.386,0-21.261
		C220.997,212.872,230.522,212.872,236.39,218.74z"/>
</g>
<g>
	<path style="fill:#FFA81F;" d="M236.39,218.74l108.595,108.595c5.875,5.875,5.868,15.393,0,21.261L215.128,218.74
		C220.997,212.872,230.522,212.872,236.39,218.74z"/>
	<path style="fill:#FFA81F;" d="M267.099,188.032l108.595,108.595c5.875,5.875,5.868,15.393,0,21.261
		c-5.875,5.875-15.386,5.875-21.261,0L245.838,209.293c-5.868-5.868-5.875-15.386,0-21.261
		C251.705,182.164,261.23,182.164,267.099,188.032z"/>
	<path style="fill:#FFA81F;" d="M299.933,157.026l108.602,108.602c5.868,5.868,5.875,15.386,0,21.261
		c-5.868,5.868-15.393,5.868-21.261,0L278.672,178.287c-5.868-5.868-5.868-15.393,0-21.261
		C284.547,151.15,294.065,151.157,299.933,157.026z"/>
	<path style="fill:#FFA81F;" d="M332.2,124.758L440.802,233.36c5.868,5.868,5.875,15.386,0,21.261
		c-5.868,5.868-15.393,5.868-21.261,0L310.939,146.02c-5.868-5.868-5.868-15.393,0-21.261
		C316.814,118.884,326.333,118.891,332.2,124.758z"/>
	<path style="fill:#FFA81F;" d="M364.475,90.656L473.07,199.251c5.875,5.875,5.875,15.386,0,21.261
		c-5.868,5.868-15.386,5.875-21.261,0L343.214,111.917c-5.868-5.868-5.868-15.393,0-21.261
		C349.089,84.78,358.607,84.787,364.475,90.656z"/>
	<path style="fill:#FFA81F;" d="M397.933,59.025l108.602,108.602c5.868,5.868,5.875,15.386,0,21.261
		c-5.868,5.868-15.393,5.868-21.261,0L376.671,80.287c-5.868-5.868-5.868-15.393,0-21.261
		C382.547,53.15,392.065,53.157,397.933,59.025z"/>
</g>
<path style="fill:#FFC473;" d="M216.934,476.652c-5.871,5.871-15.39,5.871-21.261,0L87.075,368.054
	c-5.871-5.871-5.871-15.39,0-21.261s15.39-5.871,21.261,0L216.933,455.39C222.805,461.261,222.805,470.781,216.934,476.652z"/>
<path style="fill:#F27998;" d="M397.352,27.077c14.323,14.323,14.323,37.639,0,51.962L79.56,396.832
	c-14.323,14.323-37.639,14.323-51.962,0c-36.102-36.102-36.102-94.839-0.007-130.934L266.418,27.07
	C302.513-9.025,361.251-9.025,397.352,27.077z"/>
<path style="fill:#FF3D63;" d="M397.352,27.077c14.323,14.323,14.323,37.639,0,51.962L236.39,240.001l-91.452-91.452L266.418,27.07
	C302.513-9.025,361.251-9.025,397.352,27.077z"/>
<path style="fill:#FFC473;" d="M254.54,130.4c5.875,5.875,5.875,15.386,0,21.261L148.043,258.158
	c-5.875,5.875-15.386,5.875-21.261,0c-5.868-5.868-5.875-15.386,0-21.261L233.279,130.4
	C239.154,124.524,248.672,124.531,254.54,130.4z"/>
<path style="fill:#FFA81F;" d="M254.54,151.661l-53.245,53.245l-21.261-21.261l53.245-53.245c5.875-5.875,15.393-5.868,21.261,0
	C260.416,136.275,260.416,145.785,254.54,151.661z"/>
<g>
</g>
<g>
</g>
<g>
</g>
<g>
</g>
<g>
</g>
<g>
</g>
<g>
</g>
<g>
</g>
<g>
</g>
<g>
</g>
<g>
</g>
<g>
</g>
<g>
</g>
<g>
</g>
<g>
</g>
</svg>
