<?xml version="1.0" encoding="iso-8859-1"?>
<!-- Generator: Adobe Illustrator 19.0.0, SVG Export Plug-In . SVG Version: 6.00 Build 0)  -->
<svg version="1.1" id="Layer_1" xmlns="http://www.w3.org/2000/svg" xmlns:xlink="http://www.w3.org/1999/xlink" x="0px" y="0px"
	 viewBox="0 0 512.001 512.001" style="enable-background:new 0 0 512.001 512.001;" xml:space="preserve">
<path style="fill:#736056;" d="M120.404,438.886l-47.289-47.283c-6.53-6.53-17.109-6.53-23.639,0l-23.639,23.639
	c-9.479,9.474-14.692,22.066-14.692,35.463c0,13.397,5.213,25.989,14.693,35.458c9.468,9.474,22.072,14.693,35.458,14.693
	c13.397,0,26-5.219,35.458-14.688l23.65-23.639C126.933,455.999,126.933,445.415,120.404,438.886z"/>
<path style="fill:#665247;" d="M96.758,415.242l-70.92,70.92c9.468,9.474,22.072,14.693,35.458,14.693
	c13.397,0,26-5.219,35.458-14.688l23.65-23.639c6.53-6.53,6.53-17.114,0-23.644L96.758,415.242z"/>
<path style="fill:#3AACE6;" d="M167.007,512c-13.387,0-25.989-5.219-35.458-14.693L14.694,380.452
	c-9.48-9.468-14.693-22.061-14.693-35.458c0-13.397,5.213-25.989,14.693-35.463s22.071-14.688,35.458-14.688
	c13.397,0,25.989,5.213,35.458,14.688l116.856,116.855c9.48,9.474,14.693,22.066,14.693,35.463c0,13.393-5.213,25.984-14.682,35.453
	l0,0C193.008,506.781,180.404,512,167.007,512z"/>
<path style="fill:#2B9FD9;" d="M144.04,367.96l-70.92,70.92l58.428,58.428c9.468,9.474,22.072,14.693,35.458,14.693
	c13.397,0,26-5.219,35.469-14.698c9.468-9.468,14.682-22.061,14.682-35.453c0-13.397-5.213-25.989-14.693-35.463L144.04,367.96z"/>
<path style="fill:#736056;" d="M486.163,25.838c-9.468-9.474-22.071-14.693-35.458-14.693c-13.397,0-26,5.219-35.458,14.688
	l-23.65,23.639c-6.53,6.53-6.53,17.114,0,23.644l47.289,47.283c3.265,3.265,7.543,4.898,11.819,4.898
	c4.276,0,8.555-1.633,11.819-4.898l23.639-23.639c9.48-9.474,14.693-22.066,14.693-35.463S495.642,35.306,486.163,25.838z"/>
<path style="fill:#665247;" d="M415.243,96.758l23.643,23.64c3.265,3.265,7.543,4.898,11.819,4.898
	c4.276,0,8.555-1.633,11.819-4.898l23.639-23.639c9.48-9.474,14.693-22.066,14.693-35.463s-5.213-25.989-14.693-35.458
	L415.243,96.758z"/>
<path style="fill:#3AACE6;" d="M461.85,217.158c-13.397,0-25.989-5.213-35.458-14.688L309.536,85.614
	c-9.48-9.474-14.693-22.066-14.693-35.463s5.213-25.989,14.693-35.463C318.993,5.219,331.597,0,344.995,0
	c13.387,0,25.989,5.219,35.458,14.693l116.855,116.855c9.48,9.468,14.693,22.061,14.693,35.458s-5.213,25.989-14.693,35.463v0.006
	C487.829,211.944,475.237,217.158,461.85,217.158z M485.489,190.65h0.109H485.489z"/>
<path style="fill:#2B9FD9;" d="M438.881,73.12l-70.919,70.919l58.43,58.43c9.468,9.474,22.061,14.688,35.458,14.688
	c13.387,0,25.979-5.213,35.458-14.682v-0.006c9.48-9.474,14.693-22.066,14.693-35.463s-5.213-25.989-14.693-35.458L438.881,73.12z"
	/>
<polygon style="fill:#736056;" points="210.582,372.347 372.303,210.621 301.404,139.671 139.657,301.422 "/>
<polygon style="fill:#665247;" points="175.117,336.883 210.582,372.347 372.303,210.621 336.854,175.147 "/>
<path style="fill:#61DAF2;" d="M438.211,288.058c-12.853,0-25.696-4.887-35.469-14.66L238.609,109.253
	c-9.48-9.468-14.693-22.061-14.693-35.458s5.213-25.989,14.693-35.463c9.48-9.474,22.072-14.688,35.458-14.688
	c13.397,0,25.989,5.213,35.458,14.688L473.669,202.47c9.48,9.468,14.693,22.061,14.693,35.458c0,13.403-5.213,25.995-14.693,35.469
	C463.896,283.171,451.054,288.058,438.211,288.058z"/>
<path style="fill:#45C7E6;" d="M391.598,120.402l-70.923,70.923l82.067,82.072c9.774,9.774,22.616,14.66,35.469,14.66
	c12.842,0,25.685-4.887,35.458-14.66c9.48-9.474,14.693-22.066,14.693-35.469c0-13.397-5.213-25.989-14.693-35.458L391.598,120.402z
	"/>
<path style="fill:#61DAF2;" d="M237.934,488.356c-13.397,0-25.989-5.213-35.458-14.688L38.333,309.53
	c-9.48-9.468-14.693-22.061-14.693-35.458c0-13.403,5.213-25.995,14.693-35.469c19.558-19.558,51.391-19.535,70.928,0
	l164.133,164.144c9.48,9.468,14.693,22.061,14.693,35.458c0,13.397-5.213,25.989-14.693,35.463v0.006
	C263.913,483.143,251.321,488.356,237.934,488.356z M261.573,461.849h0.109H261.573z"/>
<path style="fill:#45C7E6;" d="M191.326,320.675l-70.923,70.923l82.074,82.07c9.468,9.474,22.061,14.688,35.458,14.688
	c13.387,0,25.979-5.213,35.458-14.682v-0.006c9.48-9.474,14.693-22.066,14.693-35.463c0-13.397-5.213-25.989-14.693-35.458
	L191.326,320.675z"/>
<g>
</g>
<g>
</g>
<g>
</g>
<g>
</g>
<g>
</g>
<g>
</g>
<g>
</g>
<g>
</g>
<g>
</g>
<g>
</g>
<g>
</g>
<g>
</g>
<g>
</g>
<g>
</g>
<g>
</g>
</svg>
