<?xml version="1.0" encoding="iso-8859-1"?>
<!-- Generator: Adobe Illustrator 19.0.0, SVG Export Plug-In . SVG Version: 6.00 Build 0)  -->
<svg version="1.1" id="Layer_1" xmlns="http://www.w3.org/2000/svg" xmlns:xlink="http://www.w3.org/1999/xlink" x="0px" y="0px"
	 viewBox="0 0 512 512" style="enable-background:new 0 0 512 512;" xml:space="preserve">
<path style="fill:#35495E;" d="M467.862,225.103v95.514c-2.913-0.538-5.87-0.803-8.828-0.794h-17.655
	c-3.098,0.009-6.144,0.83-8.828,2.383v-97.103c0-97.51-79.042-176.552-176.552-176.552S79.448,127.594,79.448,225.103v97.103
	c-2.684-1.554-5.729-2.375-8.828-2.383H52.966c-2.957-0.009-5.914,0.256-8.828,0.794v-95.514
	c0-117.01,94.852-211.862,211.862-211.862S467.862,108.094,467.862,225.103z"/>
<g>
	<path style="fill:#95A5A5;" d="M88.276,306.935V478.72c-5.756,1.571-11.688,2.366-17.655,2.383H52.966
		C23.711,481.103,0,457.393,0,428.138v-70.621c0.026-25.829,18.67-47.863,44.138-52.171c2.913-0.539,5.87-0.803,8.828-0.794h17.655
		C76.588,304.561,82.52,305.364,88.276,306.935z"/>
	<path style="fill:#95A5A5;" d="M512,357.517v70.621c0,29.255-23.711,52.966-52.966,52.966h-17.655
		c-5.967-0.018-11.9-0.812-17.655-2.383V306.935c5.756-1.571,11.688-2.375,17.655-2.383h17.655c2.957-0.009,5.914,0.256,8.828,0.794
		C493.33,309.654,511.974,331.688,512,357.517z"/>
</g>
<g>
	<path style="fill:#35495E;" d="M141.241,313.379v158.897c0,14.627-11.855,26.483-26.483,26.483H97.103
		c-9.754,0-17.655-7.901-17.655-17.655V304.552c0-9.754,7.901-17.655,17.655-17.655h17.655
		C129.386,286.897,141.241,298.752,141.241,313.379z"/>
	<path style="fill:#35495E;" d="M432.552,304.552v176.552c0,9.754-7.901,17.655-17.655,17.655h-17.655
		c-14.627,0-26.483-11.855-26.483-26.483V313.379c0-14.627,11.855-26.483,26.483-26.483h17.655
		C424.651,286.897,432.552,294.797,432.552,304.552z"/>
</g>
<g>
</g>
<g>
</g>
<g>
</g>
<g>
</g>
<g>
</g>
<g>
</g>
<g>
</g>
<g>
</g>
<g>
</g>
<g>
</g>
<g>
</g>
<g>
</g>
<g>
</g>
<g>
</g>
<g>
</g>
</svg>
