<?xml version="1.0" encoding="iso-8859-1"?>
<!-- Generator: Adobe Illustrator 19.0.0, SVG Export Plug-In . SVG Version: 6.00 Build 0)  -->
<svg version="1.1" id="Layer_1" xmlns="http://www.w3.org/2000/svg" xmlns:xlink="http://www.w3.org/1999/xlink" x="0px" y="0px"
	 viewBox="0 0 512 512" style="enable-background:new 0 0 512 512;" xml:space="preserve">
<path style="fill:#BA0D0D;" d="M280.361,27.945V10.778C280.361,4.85,275.504,0,269.567,0h-27.135
	c-5.937,0-10.794,4.851-10.794,10.778v17.167H280.361z"/>
<path style="opacity:0.1;enable-background:new    ;" d="M264.047,0h-21.615c-5.937,0-10.794,4.851-10.794,10.778v17.167h21.615
	V10.778C253.253,4.851,258.11,0,264.047,0z"/>
<path style="fill:#971311;" d="M297.579,55.132c0,5.929-4.857,10.778-10.793,10.778h-61.571c-5.937,0-10.794-4.85-10.794-10.778
	V34.627c0-5.929,4.858-10.779,10.794-10.779h61.571c5.936,0,10.793,4.85,10.793,10.779V55.132z"/>
<path style="opacity:0.1;enable-background:new    ;" d="M236.571,55.132V34.627c0-5.929,4.857-10.779,10.794-10.779h-22.151
	c-5.937,0-10.794,4.85-10.794,10.779v20.505c0,5.929,4.858,10.778,10.794,10.778h22.151
	C241.429,65.91,236.571,61.061,236.571,55.132z"/>
<path style="fill:#BA0D0D;" d="M349.065,165.925v-31.46c0-48.91-39.75-88.558-88.786-88.558h-8.558
	c-49.035,0-88.787,39.649-88.787,88.558v31.46H349.065z"/>
<path style="opacity:0.1;enable-background:new    ;" d="M267.214,46.201c-2.29-0.177-4.599-0.295-6.935-0.295h-8.558
	c-49.035,0-88.787,39.649-88.787,88.558v31.46h22.428v-31.46C185.362,87.885,221.423,49.734,267.214,46.201z"/>
<path style="fill:#E02424;" d="M290.478,165.925v-31.46c0-48.91-14.727-88.558-32.892-88.558h-3.171
	c-18.167,0-32.893,39.649-32.893,88.558v31.46H290.478z"/>
<path style="opacity:0.1;enable-background:new    ;" d="M267.303,49.838c-3.072-2.553-6.334-3.933-9.718-3.933h-3.171
	c-18.167,0-32.893,39.649-32.893,88.558v31.46h22.605v-31.46C244.127,94.664,253.881,60.998,267.303,49.838z"/>
<path style="fill:#BA0D0D;" d="M426.318,291.099c0,2.964-2.428,5.39-5.397,5.39h-28.049c-2.969,0-5.397-2.425-5.397-5.39v-14.878
	c0-2.964,2.428-5.39,5.397-5.39h28.049c2.969,0,5.397,2.425,5.397,5.39V291.099z"/>
<path style="fill:#E02424;" d="M400.793,318.643c0,2.964-2.428,5.39-5.397,5.39h-28.049c-2.969,0-5.397-2.425-5.397-5.39v-69.967
	c0-2.964,2.428-5.389,5.397-5.389h28.049c2.969,0,5.397,2.424,5.397,5.389V318.643z"/>
<path style="fill:#971311;" d="M376.378,333.063c0,2.964-2.428,5.39-5.397,5.39h-28.049c-2.969,0-5.397-2.425-5.397-5.39v-98.808
	c0-2.964,2.428-5.39,5.397-5.39h28.049c2.969,0,5.397,2.425,5.397,5.39V333.063z"/>
<path style="fill:#BA0D0D;" d="M85.682,291.099c0,2.964,2.428,5.39,5.397,5.39h28.048c2.969,0,5.397-2.425,5.397-5.39v-14.878
	c0-2.964-2.428-5.39-5.397-5.39H91.079c-2.969,0-5.397,2.425-5.397,5.39V291.099z"/>
<path style="fill:#E02424;" d="M111.206,318.643c0,2.964,2.428,5.39,5.397,5.39h28.049c2.969,0,5.397-2.425,5.397-5.39v-69.967
	c0-2.964-2.428-5.389-5.397-5.389h-28.049c-2.969,0-5.397,2.424-5.397,5.389C111.206,248.675,111.206,318.643,111.206,318.643z"/>
<path style="fill:#FFFFFF;" d="M135.621,333.063c0,2.964,2.428,5.39,5.397,5.39h28.049c2.969,0,5.397-2.425,5.397-5.39v-98.808
	c0-2.964-2.428-5.39-5.397-5.39h-28.049c-2.969,0-5.397,2.425-5.397,5.39V333.063z"/>
<path style="fill:#971311;" d="M135.621,333.063c0,2.964,2.428,5.39,5.397,5.39h28.049c2.969,0,5.397-2.425,5.397-5.39v-98.808
	c0-2.964-2.428-5.39-5.397-5.39h-28.049c-2.969,0-5.397,2.425-5.397,5.39V333.063z"/>
<path style="opacity:0.1;enable-background:new    ;" d="M153.256,333.063v-98.808c0-2.964,2.428-5.39,5.397-5.39h-17.635
	c-2.969,0-5.397,2.425-5.397,5.39v98.808c0,2.964,2.428,5.39,5.397,5.39h17.635C155.685,338.453,153.256,336.028,153.256,333.063z"
	/>
<rect x="162.325" y="169.253" style="fill:#E02424;" width="187.34" height="304.87"/>
<rect x="162.325" y="387.647" style="fill:#BA0D0D;" width="187.34" height="82.683"/>
<rect x="162.325" y="169.253" style="opacity:0.1;enable-background:new    ;" width="33.698" height="304.87"/>
<path style="fill:#E02424;" d="M370.647,474.116v-23.142c0-2.964-2.428-5.39-5.396-5.39H146.75c-2.969,0-5.397,2.425-5.397,5.39
	v23.142H370.647z"/>
<path style="opacity:0.1;enable-background:new    ;" d="M175.047,474.116v-23.142c0-2.964,2.428-5.39,5.397-5.39h-33.695
	c-2.969,0-5.397,2.425-5.397,5.39v23.142H175.047z"/>
<path style="fill:#971311;" d="M366.509,176.927c0,2.964-2.428,5.389-5.397,5.389H150.887c-2.969,0-5.397-2.424-5.397-5.389v-25.177
	c0-2.964,2.428-5.39,5.397-5.39h210.224c2.969,0,5.397,2.425,5.397,5.39v25.177H366.509z"/>
<path style="opacity:0.1;enable-background:new    ;" d="M179.365,176.927v-25.177c0-2.964,2.428-5.39,5.397-5.39h-33.873
	c-2.969,0-5.397,2.425-5.397,5.39v25.177c0,2.964,2.428,5.389,5.397,5.389h33.873C181.793,182.316,179.365,179.892,179.365,176.927z
	"/>
<ellipse style="fill:#971311;" cx="256" cy="283.658" rx="74.449" ry="74.25"/>
<ellipse style="fill:#BA0D0D;" cx="256" cy="283.658" rx="50.667" ry="50.531"/>
<path style="opacity:0.1;enable-background:new    ;" d="M227.936,283.661c0-24.034,16.825-44.133,39.365-49.259
	c-3.636-0.828-7.416-1.278-11.302-1.278c-27.983,0-50.666,22.624-50.666,50.535c0,27.91,22.683,50.535,50.666,50.535
	c3.887,0,7.665-0.451,11.302-1.278C244.761,327.794,227.936,307.694,227.936,283.661z"/>
<g>
	<ellipse style="fill:#971311;" cx="256" cy="283.658" rx="19.121" ry="19.069"/>
	<path style="fill:#971311;" d="M387.426,506.61c0,2.964-2.428,5.39-5.397,5.39H129.971c-2.969,0-5.397-2.425-5.397-5.39v-31.283
		c0-2.964,2.428-5.39,5.397-5.39h252.059c2.969,0,5.397,2.425,5.397,5.39L387.426,506.61L387.426,506.61z"/>
</g>
<path style="opacity:0.1;enable-background:new    ;" d="M158.292,506.61v-31.283c0-2.964,2.428-5.39,5.397-5.39h-33.718
	c-2.969,0-5.397,2.425-5.397,5.39v31.283c0,2.964,2.428,5.39,5.397,5.39h33.718C160.72,512,158.292,509.575,158.292,506.61z"/>
<g>
</g>
<g>
</g>
<g>
</g>
<g>
</g>
<g>
</g>
<g>
</g>
<g>
</g>
<g>
</g>
<g>
</g>
<g>
</g>
<g>
</g>
<g>
</g>
<g>
</g>
<g>
</g>
<g>
</g>
</svg>
