<?xml version="1.0" encoding="iso-8859-1"?>
<!-- Generator: Adobe Illustrator 19.0.0, SVG Export Plug-In . SVG Version: 6.00 Build 0)  -->
<svg version="1.1" id="Layer_1" xmlns="http://www.w3.org/2000/svg" xmlns:xlink="http://www.w3.org/1999/xlink" x="0px" y="0px"
	 viewBox="0 0 338.925 338.925" style="enable-background:new 0 0 338.925 338.925;" xml:space="preserve">
<g>
	<g>
		<path style="fill:#5C6670;" d="M69.297,310.844c-19.137,19.137-50.16,19.137-69.297,0l174.968-174.967l34.648,34.648
			L69.297,310.844z"/>
		<path style="fill:#C3C6C8;" d="M6.6,304.247c18.887,11.652,43.965,9.303,60.34-7.073l134.662-134.662l8.014,8.015L69.297,310.844
			c-19.137,19.137-50.16,19.137-69.297,0L6.6,304.247z"/>
		
			<rect x="174.722" y="135.991" transform="matrix(0.7071 -0.7071 0.7071 0.7071 -55.9744 174.5131)" style="fill:#333E48;" width="15.893" height="37.666"/>
		
			<rect x="192.046" y="166.471" transform="matrix(0.7071 -0.7071 0.7071 0.7071 -63.1434 191.8338)" style="fill:#5C6670;" width="15.892" height="11.334"/>
	</g>
	<path style="fill:#5A3C3D;" d="M330.266,64.194L219.451,175.01c-3.89,3.889-10.253,3.888-14.143,0l-34.736-34.736L288.459,22.387
		c11.545-11.545,30.262-11.546,41.807,0C341.81,33.932,341.813,52.649,330.266,64.194z"/>
	<circle style="fill:#FEDD3D;" cx="205.255" cy="137.878" r="11.083"/>
</g>
<g>
</g>
<g>
</g>
<g>
</g>
<g>
</g>
<g>
</g>
<g>
</g>
<g>
</g>
<g>
</g>
<g>
</g>
<g>
</g>
<g>
</g>
<g>
</g>
<g>
</g>
<g>
</g>
<g>
</g>
</svg>
