<?xml version="1.0" encoding="iso-8859-1"?>
<!-- Generator: Adobe Illustrator 19.0.0, SVG Export Plug-In . SVG Version: 6.00 Build 0)  -->
<svg version="1.1" id="Layer_1" xmlns="http://www.w3.org/2000/svg" xmlns:xlink="http://www.w3.org/1999/xlink" x="0px" y="0px"
	 viewBox="0 0 512 512" style="enable-background:new 0 0 512 512;" xml:space="preserve">
<rect x="220.69" y="88.276" style="fill:#CAC9CD;" width="70.621" height="35.31"/>
<rect x="220.69" y="44.138" style="fill:#B4E1FA;" width="70.621" height="44.138"/>
<rect x="220.69" y="44.138" style="fill:#A0D2F0;" width="70.621" height="17.655"/>
<path style="fill:#EDEDEE;" d="M300.138,123.586h-88.276c0,26.483,0,317.793-44.138,379.586h176.552
	C300.138,441.379,300.138,150.069,300.138,123.586z"/>
<path style="fill:#A7A5AC;" d="M304.552,132.414h-97.103c-2.438,0-4.414-1.976-4.414-4.414v-8.828c0-2.438,1.976-4.414,4.414-4.414
	h97.103c2.438,0,4.414,1.976,4.414,4.414V128C308.966,130.438,306.989,132.414,304.552,132.414z"/>
<path style="fill:#CAC9CD;" d="M264.828,15.873V8.828C264.828,3.953,260.875,0,256,0s-8.828,3.953-8.828,8.828v7.046
	c-10.458,4.6-26.483,10.412-26.483,28.265H256h35.31C291.31,26.285,275.286,20.473,264.828,15.873z"/>
<g>
	<path style="fill:#FF6464;" d="M210.734,203.034h90.531c-0.864-31.609-1.069-57.071-1.113-70.621h-88.305
		C211.802,145.963,211.598,171.425,210.734,203.034z"/>
	<path style="fill:#FF6464;" d="M202.897,344.276h106.208c-2.144-23.503-3.775-47.479-5.015-70.621h-96.178
		C206.67,296.797,205.041,320.772,202.897,344.276z"/>
	<path style="fill:#FF6464;" d="M167.724,503.172h176.552c-11.689-16.365-20.258-48.898-26.577-88.276H194.301
		C187.982,454.274,179.413,486.807,167.724,503.172z"/>
</g>
<path style="fill:#A7A5AC;" d="M357.517,512H154.483c-2.438,0-4.414-1.976-4.414-4.414v-8.828c0-2.438,1.976-4.414,4.414-4.414
	h203.034c2.438,0,4.414,1.976,4.414,4.414v8.828C361.931,510.024,359.955,512,357.517,512z"/>
<path style="fill:#D2555A;" d="M300.275,150.069c-0.071-7.06-0.107-13.085-0.122-17.655h-88.305
	c-0.015,4.57-0.052,10.595-0.122,17.655H300.275z"/>
<g>
	<path style="fill:#625D6B;" d="M260.414,167.724h-8.828c-2.438,0-4.414-1.976-4.414-4.414v-8.828c0-2.438,1.976-4.414,4.414-4.414
		h8.828c2.438,0,4.414,1.976,4.414,4.414v8.828C264.828,165.748,262.851,167.724,260.414,167.724z"/>
	<path style="fill:#625D6B;" d="M260.414,220.69h-8.828c-2.438,0-4.414-1.976-4.414-4.414v-8.828c0-2.438,1.976-4.414,4.414-4.414
		h8.828c2.438,0,4.414,1.976,4.414,4.414v8.828C264.828,218.713,262.851,220.69,260.414,220.69z"/>
	<path style="fill:#625D6B;" d="M264.828,494.345h-17.655v-30.897c0-2.438,1.976-4.414,4.414-4.414h8.828
		c2.438,0,4.414,1.976,4.414,4.414V494.345z"/>
</g>
<g>
</g>
<g>
</g>
<g>
</g>
<g>
</g>
<g>
</g>
<g>
</g>
<g>
</g>
<g>
</g>
<g>
</g>
<g>
</g>
<g>
</g>
<g>
</g>
<g>
</g>
<g>
</g>
<g>
</g>
</svg>
