<?xml version="1.0" encoding="iso-8859-1"?>
<!-- Generator: Adobe Illustrator 19.0.0, SVG Export Plug-In . SVG Version: 6.00 Build 0)  -->
<svg version="1.1" id="Layer_1" xmlns="http://www.w3.org/2000/svg" xmlns:xlink="http://www.w3.org/1999/xlink" x="0px" y="0px"
	 viewBox="0 0 512 512" style="enable-background:new 0 0 512 512;" xml:space="preserve">
<path style="fill:#E8DEB3;" d="M389.565,233.739L389.565,233.739c0,12.295-9.966,22.261-22.261,22.261h-11.13h-11.13l33.391,256
	h-244.87l33.391-256h-11.13h-11.13c-12.295,0-22.261-9.966-22.261-22.261l0,0c0-12.295,9.966-22.261,22.261-22.261h11.13v-55.652
	v-55.652h-0.709C173.412,67.191,212.103,44.522,256,44.522l0,0c43.897,0,81.878,22.669,100.174,55.652v55.652v55.652h11.13
	C379.599,211.478,389.565,221.444,389.565,233.739z"/>
<path style="fill:#D3C58B;" d="M389.565,233.739L389.565,233.739c0,12.295-9.966,22.261-22.261,22.261h-11.13h-11.13l33.391,256H256
	V44.522l0,0c43.897,0,81.878,22.669,100.174,55.652v55.652v55.652h11.13C379.599,211.478,389.565,221.444,389.565,233.739z"/>
<path style="fill:#C92B00;" d="M156.794,333.913h198.411l11.615,89.043H145.18L156.794,333.913z"/>
<path style="fill:#FF4800;" d="M256,333.913v89.043H145.18l11.615-89.043H256z"/>
<path style="fill:#A09875;" d="M122.435,233.739L122.435,233.739c0-12.295,9.966-22.261,22.261-22.261h11.13v-55.652v-55.652h-0.709
	C173.412,67.191,212.103,44.522,256,44.522l0,0c43.897,0,81.878,22.669,100.174,55.652v55.652v55.652h11.13
	c12.295,0,22.261,9.966,22.261,22.261l0,0c0,12.295-9.966,22.261-22.261,22.261h-11.13H155.826h-11.13
	C132.401,256,122.435,246.034,122.435,233.739z M445.217,489.739H66.783c-6.147,0-11.13,4.983-11.13,11.13
	c0,6.147,4.983,11.13,11.13,11.13h378.435c6.147,0,11.13-4.983,11.13-11.13C456.348,494.722,451.365,489.739,445.217,489.739z"/>
<path style="fill:#898367;" d="M389.565,233.739L389.565,233.739c0,12.295-9.966,22.261-22.261,22.261h-11.13H256v-44.522H155.826
	v-22.261H256V44.522l0,0c43.897,0,81.878,22.669,100.174,55.652v55.652v33.391v22.261h11.13
	C379.599,211.478,389.565,221.444,389.565,233.739z"/>
<path style="fill:#6D6854;" d="M356.174,189.217v22.261H256v-22.261H356.174z"/>
<path style="fill:#FFF48B;" d="M512,55.652v144.696l-155.826-44.522H155.826L0,200.348V55.652l155.826,44.522h200.348L512,55.652z"
	/>
<path style="fill:#EDB311;" d="M489.739,128c0,9.22-7.475,16.696-16.696,16.696H38.957c-9.22,0-16.696-7.475-16.696-16.696
	s7.475-16.696,16.696-16.696h434.087C482.264,111.304,489.739,118.78,489.739,128z"/>
<path style="fill:#F7DB4F;" d="M356.529,100.174L356.529,100.174v55.652H156.181v-55.652h-0.709
	c18.296-32.983,56.987-55.652,100.883-55.652l0,0C300.251,44.522,338.233,67.191,356.529,100.174z"/>
<path style="fill:#FFF48B;" d="M255.645,44.533v111.293H156.18v-55.652h-0.709C173.668,67.37,212.043,44.777,255.645,44.533z"/>
<path style="fill:#005359;" d="M356.529,100.174H155.471c16.681-30.072,50.321-51.562,89.399-55.122V11.13
	C244.87,4.983,249.853,0,256,0s11.13,4.983,11.13,11.13v33.865C306.405,48.363,339.749,69.924,356.529,100.174z"/>
<path style="fill:#007784;" d="M301.586,100.174H178.442c11.206-20.201,34.903-34.086,61.789-34.086l0,0
	C267.117,66.088,290.38,79.973,301.586,100.174z"/>
<g>
</g>
<g>
</g>
<g>
</g>
<g>
</g>
<g>
</g>
<g>
</g>
<g>
</g>
<g>
</g>
<g>
</g>
<g>
</g>
<g>
</g>
<g>
</g>
<g>
</g>
<g>
</g>
<g>
</g>
</svg>
