<?xml version="1.0" encoding="iso-8859-1"?>
<!-- Generator: Adobe Illustrator 19.0.0, SVG Export Plug-In . SVG Version: 6.00 Build 0)  -->
<svg version="1.1" id="Layer_1" xmlns="http://www.w3.org/2000/svg" xmlns:xlink="http://www.w3.org/1999/xlink" x="0px" y="0px"
	 viewBox="0 0 511.999 511.999" style="enable-background:new 0 0 511.999 511.999;" xml:space="preserve">
<g>
	<path style="fill:#FC3842;" d="M491.962,220.451c32.902-56.11,25.284-129.422-22.854-177.56
		C420.969-5.247,347.657-12.863,291.547,20.037L491.962,220.451z"/>
	<path style="fill:#FC3842;" d="M239.144,72.44c-32.901,56.111-25.284,129.423,22.854,177.562s121.45,55.754,177.56,22.855"/>
</g>
<path style="fill:#EF2235;" d="M276.951,110.248l-37.808-37.809c-49.449,84.333-3.487,192.629,90.924,216.108
	C271.542,248.999,249.995,174.289,276.951,110.248z"/>
<path style="fill:#DD2234;" d="M495.72,224.207L287.792,16.281c-5.603-5.603-14.683-5.603-20.286,0l-32.118,32.117
	c-5.603,5.603-5.603,14.684,0,20.287c12.098,12.098,203.263,203.264,207.926,207.927c5.603,5.602,14.684,5.602,20.287,0
	l32.119-32.119C501.321,238.892,501.321,229.809,495.72,224.207z"/>
<path style="fill:#BAD8E8;" d="M252.364,239.349L4.2,487.513c-5.6,5.6-5.602,14.682,0,20.285c5.603,5.601,14.683,5.601,20.284,0
	l248.165-248.165C264.956,253.303,258.643,246.979,252.364,239.349z"/>
<path style="fill:#C6122C;" d="M315.421,43.911l-27.63-27.63c-5.603-5.603-14.683-5.603-20.286,0l-32.118,32.117
	c-5.603,5.603-5.603,14.684,0,20.287l41.782,41.782C283.747,84.837,297.192,61.963,315.421,43.911z"/>
<path style="fill:#EF2235;" d="M397.251,3.482c-35.555-7.847-73.467-2.347-105.704,16.556l23.874,23.874
	C337.092,22.449,365.53,7.814,397.251,3.482z"/>
<g>
</g>
<g>
</g>
<g>
</g>
<g>
</g>
<g>
</g>
<g>
</g>
<g>
</g>
<g>
</g>
<g>
</g>
<g>
</g>
<g>
</g>
<g>
</g>
<g>
</g>
<g>
</g>
<g>
</g>
</svg>
