<?xml version="1.0" encoding="utf-8"?>
<!-- Designed by Vexels.com - 2016 All Rights Reserved - https://vexels.com/terms-and-conditions/  -->

<svg version="1.1" id="Layer_1" xmlns="http://www.w3.org/2000/svg" xmlns:xlink="http://www.w3.org/1999/xlink" x="0px" y="0px"
	 width="1200px" height="1200px" viewBox="0 0 1200 1200" enable-background="new 0 0 1200 1200" xml:space="preserve">
<g>
	<g>
		<path fill="#221E20" d="M537.324,167.947c0,0-42.82-34.215-4.174-51.88c0,0-19.051,16.519,9.793,29.901
			c0,0,35.806-11.592,35.025-34.59c0,0-18.744-36.806-39.971-30.436c0,0-68.824,17.113-41.752,77.053
			c0,0,17.122,42.187,76.698,46.193l122.603,106.549l-106.095,81.406l-74.284-97.795c-16.697-43.493-45.164-126.352-43.562-168.668
			c0,0,12.8-49.1,70.783-75.59c0,0,58.952-5.677,64.65,72.534C607.038,122.625,575.109,178.422,537.324,167.947z"/>
		<g>
			<path fill="#221E20" d="M809.04,587.795c0,0,58.477-64.976,107.212,16.242c48.725,81.227,95.837,180.309,42.227,363.873
				c-9.753,34.115-64.967,43.857-86.075-45.481c-21.128-89.349-16.241-253.416-16.241-253.416L809.04,587.795z"/>
			<path fill="#221E20" d="M390.972,587.795c0,0-58.478-64.976-107.203,16.242c-48.745,81.227-95.868,180.309-42.236,363.873
				c9.743,34.115,64.976,43.857,86.094-45.481c21.107-89.349,16.241-253.416,16.241-253.416L390.972,587.795z"/>
			<path d="M912.997,772.981c0,187.501-145.522,339.501-307.007,339.501c-161.487,0-316.761-152-316.761-339.501
				c0-187.509,155.275-274.524,316.761-274.524C767.475,498.456,912.997,585.471,912.997,772.981z"/>
			<path fill="#221E20" d="M863.698,609.972c25.045,38.744,39.684,87.153,39.684,145.65c0,181.724-141.031,329.035-297.551,329.035
				c-156.501,0-306.998-147.311-306.998-329.035c0-55.778,14.204-102.385,38.388-140.19c-31.256,41.662-50.011,94.877-50.011,160.24
				c0,188.707,156.283,341.686,318.808,341.686s308.996-152.98,308.996-341.686C915.015,707.421,895.846,652.415,863.698,609.972z"
				/>
			<path d="M622.231,409.919c0,97.331-78.913,176.244-176.244,176.244c-97.35,0-176.263-78.913-176.263-176.244
				c0-97.34,78.913-176.244,176.263-176.244C543.318,233.675,622.231,312.579,622.231,409.919z"/>
			<path d="M943.858,409.919c0,97.331-78.903,176.244-176.234,176.244c-97.341,0-176.254-78.913-176.254-176.244
				c0-97.34,78.913-176.244,176.254-176.244C864.955,233.675,943.858,312.579,943.858,409.919z"/>
			<path fill="#0091D7" d="M545.068,415.062c0,52.038-42.186,94.216-94.215,94.216s-94.216-42.177-94.216-94.216
				c0-52.028,42.187-94.215,94.216-94.215S545.068,363.034,545.068,415.062z"/>
			<path d="M503.911,415.062c0,29.309-23.759,53.078-53.057,53.078c-29.319,0-53.078-23.769-53.078-53.078
				c0-29.308,23.759-53.056,53.078-53.056C480.152,362.006,503.911,385.755,503.911,415.062z"/>
			<path fill="#FFFFFF" d="M449.488,387.99c0,9.565-7.755,17.329-17.32,17.329c-9.584,0-17.329-7.765-17.329-17.329
				c0-9.566,7.745-17.32,17.329-17.32C441.734,370.67,449.488,378.425,449.488,387.99z"/>
			<path fill="#FFFFFF" d="M417.006,360.917c0,4.194-3.403,7.577-7.577,7.577c-4.193,0-7.576-3.383-7.576-7.577
				c0-4.193,3.383-7.576,7.576-7.576C413.602,353.341,417.006,356.724,417.006,360.917z"/>
			<g>
				<path fill="#0091D7" d="M848.841,415.062c0,52.038-42.176,94.216-94.225,94.216c-52.038,0-94.225-42.177-94.225-94.216
					c0-52.028,42.186-94.215,94.225-94.215C806.665,320.848,848.841,363.034,848.841,415.062z"/>
				<path d="M807.693,415.062c0,29.309-23.768,53.078-53.077,53.078c-29.307,0-53.077-23.769-53.077-53.078
					c0-29.308,23.769-53.056,53.077-53.056C783.925,362.006,807.693,385.755,807.693,415.062z"/>
			</g>
			<path fill="#221E20" d="M783.065,227.058c79.012-23.581,140.932-14.946,159.449-8.546
				c-56.322-37.904-141.862-23.829-162.456-21.672c10.841-10.821,50.367-38.438,51.989-40.06
				c-115.688,0-194.651,32.375-229.4,32.484c-34.739-0.109-113.711-32.484-229.4-32.484c1.622,1.623,41.148,29.24,51.989,40.06
				c-20.594-2.156-106.134-16.231-162.456,21.672c18.497-6.38,80.179-14.996,158.934,8.398
				c-95.708,8.714-170.665,89.111-170.665,187.085c0,103.75,84.116,187.886,187.896,187.886c69.358,0,129.893-37.617,162.436-93.523
				c32.562,55.906,93.097,93.523,162.456,93.523c103.78,0,187.895-84.136,187.895-187.886
				C951.731,316.703,877.824,236.682,783.065,227.058z M448.143,578.052c-87.341,0-158.104-70.802-158.104-158.113
				c0-87.321,70.762-158.114,158.104-158.114c60.951,0,113.79,34.502,140.2,85.017c-7.993,20.861-12.404,43.473-12.404,67.153
				c0,26.182,5.361,51.118,15.054,73.77C565.593,541.138,511.191,578.052,448.143,578.052z M754.627,578.052
				c-63.037,0-117.46-36.914-142.842-90.288c9.674-22.652,15.055-47.588,15.055-73.77c0-23.68-4.412-46.291-12.404-67.153
				c26.4-50.515,79.249-85.017,140.19-85.017c87.331,0,158.113,70.793,158.113,158.114
				C912.74,507.25,841.958,578.052,754.627,578.052z"/>
			<path fill="#F6A400" d="M592.754,483.798c1.306-0.079,2.789-0.02,4.431,0.168c18.655,2.186,56.401,21.276,57.895,47.072
				c1.651,28.062-35.066,85.452-57.717,86.777c-22.661,1.335-52.553-65.135-51.534-84.7
				C546.839,513.57,569.016,485.193,592.754,483.798z"/>
			<path fill="#FFFFFF" d="M779.702,407.387c-9.012,3.244-18.933-1.444-22.167-10.445c-3.234-9.012,1.434-18.942,10.455-22.177
				c9.001-3.224,18.923,1.444,22.157,10.446C793.391,394.211,788.702,404.153,779.702,407.387z"/>
			<path fill="#FFFFFF" d="M794.202,367.654c-3.946,1.424-8.288-0.624-9.713-4.56c-1.404-3.947,0.633-8.289,4.57-9.713
				c3.937-1.415,8.289,0.633,9.703,4.579C800.177,361.897,798.139,366.239,794.202,367.654z"/>
			<path fill="#F6A400" d="M671.272,1061.146c-74.195,7.003-51.198,88.854-51.198,88.854l35.144-32.345l1.939,0.9
				c-7.705,10.583-3.145,26.875-3.145,26.875l14.066-12.948l7.665,3.551l9.238-5.757c0,0,0,0,12.157,12.305
				c4.124-13.997,0.564-22.325-5.054-27.082l5.38-3.364c0,0,0,0,30.406,30.743C748.692,1072.165,690.957,1059.286,671.272,1061.146z
				"/>
			<path fill="#F6A400" d="M538.184,1063.094c-74.531,0.504-58.745,84.047-58.745,84.047l37.806-29.151l1.879,1.058
				c-8.605,9.882-5.48,26.49-5.48,26.49l15.133-11.662l7.32,4.214l9.713-4.936c0,0,0,0,11.059,13.314
				c5.322-13.582,2.482-22.187-2.691-27.42l5.658-2.878c0,0,0,0,27.597,33.274C614.358,1080.81,557.957,1062.947,538.184,1063.094z"
				/>
		</g>
	</g>
	<g opacity="0.7">
		<path fill="#221E20" d="M456.116,971.531c0,0-27.834,28.279-15.154,48.834c0,0,27.667,19.545,31.613-6.272
			c0,0-6.588,14.056-19.466-0.752c0,0,0.811-23.116,14.639-26.538c0,0,25.134,4.876,24.946,18.497c0,0,1.523,43.571-38.834,37.686
			c0,0-14.926-1.633-27.873-15.915l14.975,29.417l0.673,0.604c13.977-0.604,26.727-2.098,35.689-4.995
			c0,0,27.082-15.856,33.017-54.591C510.34,997.505,503.693,961.699,456.116,971.531z"/>
		<path fill="#221E20" d="M389.864,925.328c0,0-22.315,22.69-12.167,39.179c0,0,22.196,15.668,25.361-5.034
			c0,0-5.301,11.266-15.608-0.594c0,0,0.653-18.547,11.731-21.297c0,0,20.158,3.917,20.01,14.838c0,0,1.197,34.946-31.128,30.227
			c0,0-11.988-1.306-22.355-12.759l12.009,23.581l0.515,0.485c11.217-0.485,21.444-1.682,28.625-3.997
			c0,0,21.722-12.73,26.49-43.789C433.346,946.169,428.025,917.464,389.864,925.328z"/>
		<path fill="#221E20" d="M381.605,885.713c0,0-4.283-23.116-35.025-16.765c0,0-17.963,18.259-9.773,31.533
			c0,0,17.864,12.632,20.416-4.045c0,0-4.253,9.061-12.582-0.484c0,0,0.535-14.927,9.456-17.142c0,0,16.243,3.145,16.114,11.949
			c0,0,0.978,28.141-25.075,24.332c0,0-9.655-1.048-18.003-10.268l9.674,18.982l0.415,0.405c9.041-0.405,17.271-1.365,23.067-3.234
			C360.289,920.976,377.776,910.738,381.605,885.713z"/>
		<path fill="#221E20" d="M354.225,825.959c0,0-4.303-23.126-35.044-16.775c0,0-17.963,18.249-9.773,31.533
			c0,0,17.864,12.632,20.436-4.045c0,0-4.273,9.07-12.601-0.484c0,0,0.534-14.927,9.475-17.142c0,0,16.222,3.145,16.104,11.939
			c0,0,0.969,28.151-25.085,24.342c0,0-9.634-1.048-18.002-10.267l9.673,18.981l0.436,0.395c9.031-0.385,17.26-1.354,23.047-3.224
			C332.889,861.212,350.378,850.965,354.225,825.959z"/>
		<path fill="#221E20" d="M334.788,760.419c0,0-3.561-19.13-28.981-13.898c0,0-14.857,15.124-8.111,26.104
			c0,0,14.797,10.455,16.914-3.354c0,0-3.541,7.507-10.405-0.386c0,0,0.435-12.354,7.813-14.193c0,0,13.433,2.601,13.333,9.891
			c0,0,0.811,23.275-20.742,20.129c0,0-7.982-0.87-14.886-8.496l7.992,15.708l0.336,0.326c7.478-0.317,14.284-1.118,19.091-2.661
			C317.142,789.589,331.623,781.112,334.788,760.419z"/>
		<path fill="#221E20" d="M751.64,1037.693c-40.328,5.895-38.823-37.686-38.823-37.686c-0.188-13.62,24.945-18.487,24.945-18.487
			c13.829,3.412,14.64,26.538,14.64,26.538c-12.87,14.788-19.487,0.742-19.487,0.742c3.957,25.836,31.643,6.281,31.643,6.281
			c12.67-20.575-15.164-48.854-15.164-48.854c-47.588-9.822-54.245,25.985-54.245,25.985c5.955,38.734,33.037,54.59,33.037,54.59
			c8.962,2.899,21.722,4.402,35.689,4.996l0.673-0.604l14.975-29.407C766.585,1036.072,751.64,1037.693,751.64,1037.693z"/>
		<path fill="#221E20" d="M786.329,947.138c-0.168-10.93,20-14.838,20-14.838c11.098,2.74,11.741,21.287,11.741,21.287
			c-10.337,11.86-15.639,0.604-15.639,0.604c3.185,20.712,25.382,5.025,25.382,5.025c10.158-16.49-12.157-39.17-12.157-39.17
			c-38.151-7.874-43.493,20.831-43.493,20.831c4.768,31.069,26.49,43.779,26.49,43.779c7.18,2.325,17.408,3.521,28.625,4.006
			l0.515-0.485l12.028-23.591c-10.386,11.465-22.374,12.76-22.374,12.76C785.102,982.075,786.329,947.138,786.329,947.138z"/>
		<path fill="#221E20" d="M835.31,885.466c-0.139-8.803,16.103-11.939,16.103-11.939c8.932,2.206,9.456,17.142,9.456,17.142
			c-8.309,9.535-12.581,0.484-12.581,0.484c2.551,16.667,20.435,4.036,20.435,4.036c8.171-13.275-9.812-31.534-9.812-31.534
			c-30.703-6.341-35.006,16.766-35.006,16.766c3.829,25.025,21.316,35.272,21.316,35.272c5.797,1.86,14.026,2.839,23.067,3.215
			l0.415-0.386l9.674-18.991c-8.358,9.218-18.003,10.268-18.003,10.268C834.341,913.606,835.31,885.466,835.31,885.466z"/>
		<path fill="#221E20" d="M862.69,825.692c-0.118-8.783,16.104-11.939,16.104-11.939c8.942,2.216,9.456,17.152,9.456,17.152
			c-8.309,9.545-12.572,0.484-12.572,0.484c2.562,16.668,20.426,4.046,20.426,4.046c8.19-13.285-9.792-31.544-9.792-31.544
			c-30.723-6.35-35.016,16.776-35.016,16.776c3.838,25.015,21.336,35.252,21.336,35.252c5.787,1.87,14.016,2.839,23.037,3.225
			l0.425-0.386l9.683-18.991c-8.367,9.219-18.012,10.268-18.012,10.268C861.72,853.853,862.69,825.692,862.69,825.692z"/>
		<path fill="#221E20" d="M900.89,779.421c-21.543,3.155-20.733-20.129-20.733-20.129c-0.098-7.281,13.333-9.892,13.333-9.892
			c7.38,1.84,7.824,14.194,7.824,14.194c-6.874,7.893-10.415,0.396-10.415,0.396c2.117,13.798,16.904,3.353,16.904,3.353
			c6.766-10.99-8.101-26.113-8.101-26.113c-25.42-5.232-28.961,13.888-28.961,13.888c3.165,20.702,17.636,29.189,17.636,29.189
			c4.797,1.534,11.603,2.335,19.06,2.661l0.357-0.336l8.012-15.708C908.883,778.551,900.89,779.421,900.89,779.421z"/>
	</g>
</g>
</svg>
