<?xml version="1.0" encoding="iso-8859-1"?>
<!-- Generator: Adobe Illustrator 19.0.0, SVG Export Plug-In . SVG Version: 6.00 Build 0)  -->
<svg version="1.1" id="Layer_1" xmlns="http://www.w3.org/2000/svg" xmlns:xlink="http://www.w3.org/1999/xlink" x="0px" y="0px"
	 viewBox="0 0 512 512" style="enable-background:new 0 0 512 512;" xml:space="preserve">
<path style="fill:#FFDB2D;" d="M141.904,130.518c-41.21,0-74.737,33.527-74.737,74.738V239h122.751V130.518H141.904z"/>
<path style="fill:#48A63A;" d="M277.798,47.925l26.712-26.712L283.298,0l-29.541,29.54L224.217,0l-21.213,21.213l26.712,26.712
	c-45.3,10.86-79.073,51.696-79.073,100.278v179.683C150.643,384.743,196.9,431,253.757,431s103.114-46.257,103.114-103.114V148.203
	C356.872,99.622,323.098,58.786,277.798,47.925z"/>
<rect x="224.38" y="140.67" style="fill:#382A1B;" width="30" height="30"/>
<path style="fill:#3D8C31;" d="M277.798,47.925l26.712-26.712L283.298,0l-28.922,28.921c0,0-0.619,387.079-0.619,402.079
	c56.857,0,103.114-46.257,103.114-103.114V148.203C356.872,99.622,323.098,58.786,277.798,47.925z"/>
<polygon style="fill:#FFDB2D;" points="257.167,512 199.5,512 199.5,482 227.167,482 227.167,416 257.167,416 "/>
<path style="fill:#4BBAED;" d="M444.833,431.442c0,0,0-96-117.333-96l0,0v96H444.833z"/>
<path style="fill:#FF4F19;" d="M334.46,352.862c-21.813-54.53-52.266-77.796-101.828-77.796c-51.354,0-93.133,41.78-93.133,93.134
	s41.779,93.133,93.133,93.133h136.62C369.253,461.333,352.878,398.908,334.46,352.862z"/>
<g>
</g>
<g>
</g>
<g>
</g>
<g>
</g>
<g>
</g>
<g>
</g>
<g>
</g>
<g>
</g>
<g>
</g>
<g>
</g>
<g>
</g>
<g>
</g>
<g>
</g>
<g>
</g>
<g>
</g>
</svg>
