<?xml version="1.0" encoding="iso-8859-1"?>
<!-- Generator: Adobe Illustrator 19.0.0, SVG Export Plug-In . SVG Version: 6.00 Build 0)  -->
<svg version="1.1" id="Layer_1" xmlns="http://www.w3.org/2000/svg" xmlns:xlink="http://www.w3.org/1999/xlink" x="0px" y="0px"
	 viewBox="0 0 512 512" style="enable-background:new 0 0 512 512;" xml:space="preserve">
<path style="fill:#F2C097;" d="M255.999,0c-8.057,0-14.59,6.533-14.59,14.59l0.001,31.445c0,0.004-0.001,0.008-0.001,0.008
	l0.002,113.667l-0.002,180.82v0.016l0,0v31.44v0.016c0.098-0.002,0.193-0.016,0.291-0.016h28.599c0.1,0,0.193,0.011,0.291,0.016
	v-0.016v-31.44v-0.016V218.148V192.61v-5.917v-14.841v-10.699v-20.757V46.046V14.59C270.59,6.533,264.059,0,255.999,0z"/>
<path style="fill:#828186;" d="M273.5,340.545h-35.002c-7.365,0-13.336,5.971-13.336,13.336v20.117v6.553v10.091v10.026v10.091
	c9.701-3.195,20.067-4.932,30.837-4.932c10.772,0,21.137,1.737,30.837,4.932v-10.091v-10.026v-10.091v-6.553v-20.117
	C286.836,346.516,280.867,340.545,273.5,340.545z"/>
<g>
	<path style="fill:#676570;" d="M246.721,400.666V390.64v-10.091v-6.553v-20.117c0-7.365,5.969-13.336,13.336-13.336H238.5
		c-7.365,0-13.336,5.971-13.336,13.336v20.117v6.553v10.091v10.026v10.091c6.88-2.266,14.1-3.781,21.557-4.481V400.666z"/>
	<path style="fill:#676570;" d="M277.558,405.826c-3.644,0-7.238,0.214-10.779,0.601c6.926,0.757,13.639,2.216,20.058,4.331v-4.481
		C283.78,405.989,280.688,405.826,277.558,405.826z"/>
</g>
<path style="fill:#FF5855;" d="M354.505,484.217c0-54.404-44.101-98.508-98.506-98.508c-54.402,0-98.506,44.104-98.506,98.508h0.899
	c-0.588,4.353-0.899,8.794-0.899,13.308h197.011c0-4.514-0.31-8.955-0.898-13.308H354.505z"/>
<path style="fill:#C64040;" d="M179.052,484.217c0-50.762,38.395-92.548,87.726-97.918c-3.541-0.386-7.135-0.589-10.779-0.589
	c-54.402,0-98.506,44.104-98.506,98.508h0.899c-0.588,4.353-0.899,8.794-0.899,13.308h21.557c0-4.514,0.31-8.955,0.898-13.308
	h-0.897V484.217z"/>
<path style="fill:#FF3632;" d="M301.616,512H152.91c-7.67,0-13.891-6.221-13.891-13.891c0-7.673,6.221-13.891,13.891-13.891H359.09
	c7.673,0,13.891,6.219,13.891,13.891c0,7.67-6.219,13.891-13.891,13.891h-30.802"/>
<path style="fill:#C12323;" d="M160.576,498.109c0-7.673,6.219-13.891,13.891-13.891H152.91c-7.67,0-13.891,6.219-13.891,13.891
	c0,7.67,6.221,13.891,13.891,13.891h21.557C166.795,512,160.576,505.779,160.576,498.109z"/>
<g>
</g>
<g>
</g>
<g>
</g>
<g>
</g>
<g>
</g>
<g>
</g>
<g>
</g>
<g>
</g>
<g>
</g>
<g>
</g>
<g>
</g>
<g>
</g>
<g>
</g>
<g>
</g>
<g>
</g>
</svg>
