<?xml version="1.0" encoding="iso-8859-1"?>
<!-- Generator: Adobe Illustrator 19.0.0, SVG Export Plug-In . SVG Version: 6.00 Build 0)  -->
<svg version="1.1" id="Layer_1" xmlns="http://www.w3.org/2000/svg" xmlns:xlink="http://www.w3.org/1999/xlink" x="0px" y="0px"
	 viewBox="0 0 512 512" style="enable-background:new 0 0 512 512;" xml:space="preserve">
<path style="fill:#D3C437;" d="M285.186,112.786c-10.414,5.297-20.207,13.021-29.172,22.786c-11.31-12.317-23.959-21.379-37.49-26.4
	c5.338-5.517,9.945-11.366,13.531-17.614c10.262-17.834,12.262-39.034-0.759-65.834l32.014-9.503c0,0,16.91,34.11,20.91,72.938
	c0.772,7.572,1.076,15.31,0.648,23.021L285.186,112.786z"/>
<path style="fill:#E09B2D;" d="M512,299.186c0,93.076-56.097,168.51-125.228,168.51c-2.91,0-5.793-0.138-8.648-0.4
	c-17.462,18.083-37.972,28.483-59.917,28.483c-22.897,0-44.248-11.338-62.193-30.91c-17.986,19.572-39.324,30.91-62.248,30.91
	c-21.931,0-42.441-10.4-59.89-28.483c-2.855,0.262-5.738,0.4-8.634,0.4C56.097,467.697,0,392.262,0,299.186
	c0-4.372,0.124-8.717,0.372-13.007c0.441-7.89,1.31-15.641,2.538-23.2c12.303-75.669,62.414-132.303,122.331-132.303
	c2.897,0,5.779,0.138,8.634,0.4c17.448-18.083,37.959-28.497,59.89-28.497c8.497,0,16.786,1.559,24.759,4.524
	c13.531,5.021,26.179,14.083,37.49,26.4c8.966-9.766,18.759-17.49,29.172-22.786c10.455-5.297,21.545-8.138,33.021-8.138
	c21.945,0,42.469,10.414,59.917,28.497c2.855-0.262,5.738-0.4,8.648-0.4c59.903,0,110.014,56.634,122.317,132.303
	c1.228,7.559,2.097,15.31,2.538,23.2C511.876,290.469,512,294.814,512,299.186z"/>
<path style="fill:#F7B239;" d="M511.628,286.179c-5.007,86.91-59.021,155.31-124.855,155.31c-2.91,0-5.793-0.138-8.648-0.4
	c-17.462,18.083-37.972,28.483-59.917,28.483c-22.897,0-44.248-11.338-62.193-30.91c-17.986,19.572-39.324,30.91-62.248,30.91
	c-21.931,0-42.441-10.4-59.89-28.483c-2.855,0.262-5.738,0.4-8.634,0.4c-65.848,0-119.862-68.4-124.869-155.31
	c0.441-7.89,1.31-15.641,2.538-23.2c12.303-75.669,62.414-132.303,122.331-132.303c2.897,0,5.779,0.138,8.634,0.4
	c17.448-18.083,37.959-28.497,59.89-28.497c8.497,0,16.786,1.559,24.759,4.524c13.531,5.021,26.179,14.083,37.49,26.4
	c8.966-9.766,18.759-17.49,29.172-22.786c10.455-5.297,21.545-8.138,33.021-8.138c21.945,0,42.469,10.414,59.917,28.497
	c2.855-0.262,5.738-0.4,8.648-0.4c59.903,0,110.014,56.634,122.317,132.303C510.317,270.538,511.186,278.29,511.628,286.179z"/>
<path style="fill:#BFAE32;" d="M285.186,112.786c-10.414,5.297-20.207,13.021-29.172,22.786c-11.31-12.317-23.959-21.379-37.49-26.4
	c5.338-5.517,9.945-11.366,13.531-17.614c8.483,5.062,16.51,11.766,23.959,19.876c8.69-9.462,18.152-17.007,28.207-22.276
	c0.772,7.572,1.076,15.31,0.648,23.021L285.186,112.786z"/>
<g>
	<path style="fill:#E09B2D;" d="M133.876,131.076c0,0-69.71,116.11,0,263.807C133.876,394.883,36.455,267.159,133.876,131.076z"/>
	<path style="fill:#E09B2D;" d="M378.124,131.076c0,0,69.71,116.11,0,263.807C378.124,394.883,475.545,267.159,378.124,131.076z"/>
	<path style="fill:#E09B2D;" d="M256.014,133.503c0,0,0.164,1.011,0.473,2.908c0.268,1.897,0.731,4.679,1.181,8.219
		c0.939,7.081,2.094,17.196,3.12,29.334c1.033,12.138,1.938,26.299,2.543,41.473c0.178,3.793,0.29,7.65,0.404,11.553
		c0.127,3.903,0.24,7.855,0.294,11.839c0.185,7.966,0.211,16.058,0.258,24.15c-0.046,8.092-0.059,16.185-0.246,24.15
		c-0.057,3.983-0.154,7.934-0.288,11.839c-0.121,3.903-0.219,7.76-0.4,11.553c-0.603,15.172-1.508,29.334-2.543,41.473
		c-1.03,12.138-2.189,22.254-3.134,29.334c-0.452,3.541-0.917,6.321-1.188,8.219c-0.31,1.897-0.476,2.908-0.476,2.908
		s-0.166-1.011-0.476-2.908c-0.27-1.897-0.734-4.679-1.188-8.219c-0.945-7.081-2.103-17.196-3.134-29.334
		c-1.036-12.138-1.941-26.299-2.543-41.473c-0.181-3.793-0.279-7.65-0.4-11.553c-0.134-3.903-0.232-7.855-0.288-11.839
		c-0.186-7.966-0.2-16.058-0.245-24.15c0.047-8.092,0.073-16.185,0.258-24.15c0.055-3.983,0.168-7.934,0.294-11.839
		c0.114-3.903,0.226-7.76,0.404-11.553c0.607-15.172,1.51-29.334,2.543-41.473c1.026-12.138,2.181-22.254,3.12-29.334
		c0.45-3.541,0.913-6.321,1.181-8.219C255.85,134.514,256.014,133.503,256.014,133.503z"/>
</g>
<g>
</g>
<g>
</g>
<g>
</g>
<g>
</g>
<g>
</g>
<g>
</g>
<g>
</g>
<g>
</g>
<g>
</g>
<g>
</g>
<g>
</g>
<g>
</g>
<g>
</g>
<g>
</g>
<g>
</g>
</svg>
