<?xml version="1.0" encoding="iso-8859-1"?>
<!-- Generator: Adobe Illustrator 19.0.0, SVG Export Plug-In . SVG Version: 6.00 Build 0)  -->
<svg version="1.1" id="Layer_1" xmlns="http://www.w3.org/2000/svg" xmlns:xlink="http://www.w3.org/1999/xlink" x="0px" y="0px"
	 viewBox="0 0 511.993 511.993" style="enable-background:new 0 0 511.993 511.993;" xml:space="preserve">
<g>
	<circle style="fill:#4F3E3E;" cx="450.201" cy="435.089" r="37.529"/>
	<path style="fill:#4F3E3E;" d="M457.112,387.373c-0.632-60.042-80.797-197.624-213.033-197.624l-128.603,68.747
		c-55.09,90.116,18.294,161.462,18.294,161.462c-111.482,71.957,1.979,143.914,114.888,2.427L457.112,387.373z"/>
	
		<ellipse transform="matrix(0.9319 -0.3628 0.3628 0.9319 -4.1721 96.6314)" style="fill:#4F3E3E;" cx="255.198" cy="59.424" rx="111.094" ry="46.859"/>
</g>
<path style="opacity:0.1;enable-background:new    ;" d="M244.079,189.749l-128.603,68.747
	c-7.123,11.652-12.084,22.986-15.347,33.897c11.574,2.143,23.379,3.288,35.041,3.288c0.002,0,0.004,0,0.006,0
	c34.507,0,66.198-9.421,91.648-27.243c25.324-17.735,43.778-43.445,54.05-75.026C269.107,191.042,256.838,189.749,244.079,189.749z"
	/>
<path style="fill:#695352;" d="M411.564,51.796c-9.631-24.742-64.997-26.286-123.662-3.448
	c-21.472,8.358-40.404,18.826-55.314,29.95C154.91,15.669,24.263,131.713,24.263,192.792
	c2.576,69.537,195.948,116.753,226.317-24.896v-13.861c20.98-0.667,46.265-5.99,72.204-16.087
	C381.447,115.11,421.195,76.538,411.564,51.796z"/>
<circle style="fill:#4F3E3E;" cx="123.67" cy="154.338" r="15.452"/>
<path style="fill:#695352;" d="M457.112,387.373c0-59.18-47.975-107.154-107.154-107.154c-59.18,0-107.154,47.974-107.154,107.154
	c0,24.03,7.911,46.212,21.269,64.086c-58.486,34.642-4.84,88.783,92.317,42.87C412.574,491.002,457.112,444.392,457.112,387.373z"/>
<g>
</g>
<g>
</g>
<g>
</g>
<g>
</g>
<g>
</g>
<g>
</g>
<g>
</g>
<g>
</g>
<g>
</g>
<g>
</g>
<g>
</g>
<g>
</g>
<g>
</g>
<g>
</g>
<g>
</g>
</svg>
