<?xml version="1.0" encoding="iso-8859-1"?>
<!-- Generator: Adobe Illustrator 19.0.0, SVG Export Plug-In . SVG Version: 6.00 Build 0)  -->
<svg version="1.1" id="Capa_1" xmlns="http://www.w3.org/2000/svg" xmlns:xlink="http://www.w3.org/1999/xlink" x="0px" y="0px"
	 viewBox="0 0 511.999 511.999" style="enable-background:new 0 0 511.999 511.999;" xml:space="preserve">
<path style="fill:#E0E0E2;" d="M294.47,396.428l-78.208,78.524c-49.395,49.395-129.505,49.395-179.214,0
	c-49.397-49.712-49.397-129.819,0-179.214l78.524-78.21c6.016-6.332,16.148-6.332,22.164,0l78.524,78.527l78.209,78.208
	C300.803,380.28,300.803,390.412,294.47,396.428z"/>
<path style="fill:#C7C5CA;" d="M294.47,396.428l-78.208,78.524c-49.395,49.395-129.505,49.395-179.214,0l179.214-178.898
	l78.208,78.208C300.803,380.28,300.803,390.412,294.47,396.428z"/>
<path style="fill:#ADACB2;" d="M272.307,306.819l-69.343,69.343c-23.115,23.431-54.462,36.096-87.391,36.096
	c-4.433,0-8.233-1.9-11.399-4.433c-2.534-3.165-4.433-6.965-4.433-11.399c0-32.929,12.664-64.278,36.096-87.391l69.343-69.343
	l22.163,9.499l35.463,35.463L272.307,306.819z"/>
<path style="fill:#8A8891;" d="M272.307,306.819l-69.343,69.343c-23.115,23.431-54.462,36.096-87.391,36.096
	c-4.433,0-8.233-1.9-11.399-4.433l140.902-140.903l17.732,17.732L272.307,306.819z"/>
<path style="fill:#896746;" d="M440.123,139.004L272.307,306.82l-67.127-67.127L372.997,71.877c6.016-6.333,16.148-6.333,22.48,0
	l22.481,22.481l22.164,22.163C446.456,122.854,446.456,132.988,440.123,139.004z"/>
<path style="fill:#715539;" d="M440.123,139.004L272.307,306.82l-33.563-33.563L417.958,94.358l22.164,22.163
	C446.456,122.854,446.456,132.988,440.123,139.004z"/>
<path style="fill:#ADACB2;" d="M507.25,94.358l-44.647-44.963L417.641,4.75c-6.016-6.333-16.148-6.333-22.164,0
	c-8.23,7.916-14.248,14.249-22.48,22.48c-18.683,18.366-18.683,48.446,0,67.129l22.48,22.162l22.164,22.482
	c18.682,18.683,48.763,18.683,67.127,0c8.232-8.233,14.566-14.249,22.482-22.482C513.583,110.505,513.583,100.375,507.25,94.358z"/>
<path style="fill:#8A8891;" d="M507.25,116.521c-7.916,8.233-14.249,14.249-22.482,22.482c-18.364,18.683-48.444,18.683-67.127,0
	l-22.164-22.482l67.127-67.127l44.647,44.963C513.583,100.375,513.583,110.505,507.25,116.521z"/>
<g>
</g>
<g>
</g>
<g>
</g>
<g>
</g>
<g>
</g>
<g>
</g>
<g>
</g>
<g>
</g>
<g>
</g>
<g>
</g>
<g>
</g>
<g>
</g>
<g>
</g>
<g>
</g>
<g>
</g>
</svg>
