<?xml version="1.0" encoding="iso-8859-1"?>
<!-- Generator: Adobe Illustrator 19.0.0, SVG Export Plug-In . SVG Version: 6.00 Build 0)  -->
<svg version="1.1" id="Layer_1" xmlns="http://www.w3.org/2000/svg" xmlns:xlink="http://www.w3.org/1999/xlink" x="0px" y="0px"
	 viewBox="0 0 512 512" style="enable-background:new 0 0 512 512;" xml:space="preserve">
<path style="fill:#FFD15C;" d="M500.335,175.36c0,0-33.822-63.694-62.985-99.338c0,0-8.607-14.075-23.797-5.367
	c0,0-3.24,3.24-6.481,14.075c0,0-12.962,48.606-61.567,60.454c0,0-36.758,15.088-76.655-1.114c0,0-34.53-11.848-49.72,12.962
	c0,0-56.201,62.681-109.059,146.931c0,0-37.771,38.885-79.896,61.567c0,0-35.644,23.797-24.809,43.239c0,0,43.239,0,124.249-34.53
	c0,0,104.806-48.606,146.931-74.529l162.02-88.604C439.477,209.891,473.298,191.562,500.335,175.36z"/>
<path style="fill:#ACB3BA;" d="M405.959,78.554c-1.114,1.114-1.114,3.24-2.127,4.354c0,0-12.962,48.606-61.567,60.454
	c0,0-36.758,15.088-76.655-1.114c0,0-34.53-11.848-49.72,12.962c0,0-49.416,55.087-99.136,131.337
	c-8.101,12.354-17.822,23.493-28.86,33.315c-13.873,12.253-34.024,28.455-55.795,40.91c-6.582,3.747-12.759,8.304-18.227,13.67
	c-8.911,8.709-18.025,21.265-11.848,32.505c0,0,4.354,0,12.962-1.114c-2.633-2.43-2.937-3.848-3.038-5.974
	c-0.203-3.342,4.759-10.025,11.645-16.708c4.354-4.253,9.215-7.797,14.48-10.936c40.707-23.898,75.238-59.34,76.25-60.352l0,0
	c1.418-1.418,2.633-3.038,3.747-4.658c51.34-81.921,105.313-142.172,105.313-143.286c1.114-1.114,1.114-1.114,1.114-2.127
	c8.607-14.075,30.277-7.595,33.518-7.595c39.999,17.316,77.769,4.354,85.364,2.127c43.239-10.835,61.567-45.365,68.048-61.567
	L405.959,78.554z"/>
<path style="fill:#F2F2F2;" d="M127.285,372.315c0,0,104.806-48.606,146.931-74.529l162.02-88.604c0,0,35.138-20.354,62.175-37.568
	c0,0,4.557,7.19,9.62,15.189c8.405,13.367,2.835,31.695-10.835,39.796c-40.91,24.303-136.501,80.2-210.018,116.553
	c0,0-162.02,98.326-254.877,102.579c0,0-14.48,1.924-20.657-5.164c-0.608-0.709-1.013-1.519-1.418-2.329l-0.911-1.721
	c-3.949-8-6.582-16.607-7.19-25.518c-0.101-1.114-0.101-2.228-0.203-3.443c0-0.203,0.101-0.506,0.101-0.709
	C2.024,406.846,46.276,406.846,127.285,372.315z"/>
<path style="fill:#40596B;" d="M217.004,154.095c0,0-6.481,7.595-17.316,20.556l0,0c18.328-71.289,32.404-72.402,32.404-72.402
	c20.556-7.595,33.518,39.999,33.518,39.999S230.978,130.4,217.004,154.095z"/>
<path style="fill:#ACB3BA;" d="M309.861,179.006c0,0-57.213,6.481-48.606-11.848l8.607-23.797c37.771,14.075,72.402,0,72.402,0
	c48.606-11.848,61.567-60.454,61.567-60.454c3.24-9.721,6.481-14.075,6.481-14.075c15.088-8.607,23.797,5.367,23.797,5.367
	s0,0,0,1.114c3.24,25.923-9.721,50.732-31.29,64.808C380.036,155.209,344.392,174.652,309.861,179.006z"/>
<g>
	<path style="fill:#F2F2F2;" d="M132.754,251.307c-4.354-2.127-9.721-1.114-11.848,3.24c-2.127,4.354-1.114,9.721,3.24,11.848
		l8.607,4.354c3.24,2.127,6.481,1.114,8.607,0c1.114-1.114,2.127-2.127,3.24-3.24c2.127-4.354,1.114-9.721-3.24-11.848
		L132.754,251.307z"/>
	<path style="fill:#F2F2F2;" d="M154.322,222.143c-4.354-2.127-9.721-1.114-11.848,3.24s-1.114,9.721,3.24,11.848l8.607,4.354
		c3.24,2.127,6.481,1.114,8.607,0c1.114-1.114,2.127-2.127,3.24-3.24c2.127-4.354,1.114-9.721-3.24-11.848L154.322,222.143z"/>
	<path style="fill:#F2F2F2;" d="M177.005,192.98c-4.354-2.127-9.721-1.114-11.848,3.24s-1.114,9.721,3.24,11.848l8.607,4.354
		c3.24,2.127,6.481,1.114,8.607,0c1.114-1.114,2.127-2.127,3.24-3.24c2.127-4.354,1.114-9.721-3.24-11.848L177.005,192.98z"/>
	<path style="fill:#F2F2F2;" d="M207.283,168.171l-8.607-4.354c-4.354-2.127-9.721-1.114-11.848,3.24
		c-2.127,4.354-1.114,9.721,3.24,11.848l8.607,4.354c3.24,2.127,6.481,1.114,8.607,0c1.114-1.114,2.127-2.127,3.24-3.24
		C212.649,176.778,211.536,171.411,207.283,168.171z"/>
</g>
<g>
</g>
<g>
</g>
<g>
</g>
<g>
</g>
<g>
</g>
<g>
</g>
<g>
</g>
<g>
</g>
<g>
</g>
<g>
</g>
<g>
</g>
<g>
</g>
<g>
</g>
<g>
</g>
<g>
</g>
</svg>
