<?xml version="1.0" encoding="iso-8859-1"?>
<!-- Generator: Adobe Illustrator 19.0.0, SVG Export Plug-In . SVG Version: 6.00 Build 0)  -->
<svg version="1.1" id="Layer_1" xmlns="http://www.w3.org/2000/svg" xmlns:xlink="http://www.w3.org/1999/xlink" x="0px" y="0px"
	 viewBox="0 0 512 512" style="enable-background:new 0 0 512 512;" xml:space="preserve">
<g style="enable-background:new    ;">
	<path style="fill:#9CDD03;" d="M511.943,165.191l-34.795-20.221l-102.011,58.897l-43.256-24.65
		c-1.637-0.932-3.897-0.703-6.202,0.629L8.727,362.838c-4.839,2.794-8.742,9.559-8.727,15.115c0.008,2.76,0.982,4.703,2.553,5.616
		l34.795,20.221c-0.101-0.058-0.191-0.133-0.288-0.201c1.608,1.124,3.929,1.083,6.517-0.41l313.327-180.899l43.256,24.65
		c1.637,0.932,3.893,0.705,6.198-0.627L512,185.312L511.943,165.191z"/>
	<polygon style="fill:#C3FB3A;" points="409.932,224.087 375.136,203.867 477.148,144.971 511.943,165.191 	"/>
	<polygon style="fill:#9CDD03;" points="366.676,199.437 331.88,179.217 375.136,203.867 409.932,224.087 	"/>
	<path style="fill:#B3FA08;" d="M360.473,200.066l-34.795-20.221c2.305-1.33,4.565-1.561,6.202-0.629l34.795,20.221
		C365.039,198.504,362.778,198.735,360.473,200.066z"/>
	<polygon style="fill:#C3FB3A;" points="43.521,383.058 8.727,362.838 325.678,179.845 360.473,200.066 	"/>
	<path style="fill:#B3FA08;" d="M37.349,403.788L2.553,383.568c-1.571-0.912-2.545-2.856-2.553-5.616
		c-0.016-5.555,3.888-12.321,8.727-15.115l34.795,20.221c-4.839,2.794-8.742,9.559-8.727,15.115
		C34.803,400.932,35.776,402.875,37.349,403.788z"/>
	<path style="fill:#9CDD03;" d="M360.473,200.066c2.305-1.33,4.565-1.561,6.202-0.629l43.256,24.65l102.011-58.897l0.057,20.12
		l-105.64,60.991c-2.305,1.33-4.561,1.559-6.198,0.627l-43.256-24.65L43.578,403.177c-4.839,2.794-8.767,0.55-8.784-5.005
		c-0.016-5.555,3.888-12.321,8.727-15.115L360.473,200.066z"/>
</g>
<path style="fill:#E0E0E2;" d="M497.702,120.674c-2.201-1.271-5.457-1.547-8.12-0.839l0.007-2.098c0,0.068-0.011,0.134-0.017,0.201
	c0.098-1.143-0.602-2.305-2.113-3.177c-2.203-1.272-5.459-1.55-8.122-0.841l0.007-2.098c0,0.068-0.011,0.134-0.017,0.201
	c0.098-1.142-0.602-2.304-2.114-3.177c-2.827-1.633-7.4-1.633-10.212,0.002c-1.4,0.814-2.097,1.88-2.096,2.946l-0.001-0.01
	l-0.007,2.127c-2.662-0.695-5.894-0.415-8.071,0.85c-1.4,0.814-2.097,1.88-2.096,2.946l-0.001-0.01l-0.007,2.127
	c-2.662-0.695-5.894-0.415-8.071,0.85c-1.4,0.814-2.097,1.879-2.096,2.946l-0.001-0.01l-0.007,2.127
	c-2.662-0.695-5.894-0.415-8.07,0.85c-1.402,0.815-2.1,1.881-2.099,2.948c0,0-0.001-0.006-0.001-0.009l-0.007,2.126
	c-2.66-0.695-5.892-0.417-8.071,0.85c-1.4,0.814-2.097,1.879-2.096,2.946c0,0-0.001-0.007-0.001-0.01l-0.007,2.127
	c-2.662-0.695-5.894-0.415-8.071,0.85c-1.4,0.814-2.097,1.88-2.096,2.946l-0.001-0.01l-0.007,2.127
	c-2.662-0.695-5.894-0.415-8.07,0.85c-1.402,0.815-2.099,1.88-2.097,2.946l-0.001-0.01l-0.007,2.127
	c-2.662-0.694-5.894-0.414-8.073,0.852c-1.4,0.814-2.097,1.88-2.096,2.946c0,0-0.001-0.007-0.001-0.01l-0.157,43.525
	c-0.003,1.077,0.708,2.155,2.13,2.977c2.204,1.273,5.459,1.549,8.12,0.84l-0.007,2.096c-0.003,1.078,0.709,2.158,2.134,2.98
	c2.201,1.271,5.458,1.547,8.119,0.84l-0.007,2.096c-0.003,1.077,0.708,2.155,2.13,2.977c2.827,1.633,7.4,1.633,10.209,0
	c1.398-0.813,2.097-1.875,2.1-2.939l0.007-2.126c2.66,0.695,5.892,0.417,8.071-0.85c1.396-0.811,2.094-1.873,2.097-2.936
	l0.007-2.127c2.662,0.695,5.894,0.415,8.071-0.85c1.396-0.811,2.094-1.873,2.097-2.936l0.007-2.127
	c2.662,0.695,5.894,0.415,8.071-0.85c1.397-0.812,2.095-1.873,2.098-2.936l0.007-2.127c2.662,0.694,5.894,0.414,8.073-0.852
	c1.396-0.811,2.094-1.873,2.097-2.936l0.007-2.127c2.662,0.695,5.894,0.415,8.071-0.85c1.396-0.811,2.094-1.873,2.097-2.936
	l0.007-2.127c2.662,0.695,5.894,0.415,8.071-0.85c1.396-0.811,2.094-1.873,2.097-2.936l0.007-2.127
	c2.662,0.695,5.894,0.415,8.071-0.85c1.398-0.813,2.097-1.875,2.1-2.939l0.157-43.525c0,0.067-0.011,0.133-0.017,0.2
	C499.911,122.708,499.212,121.546,497.702,120.674z"/>
<g>
	<path style="fill:#C6C5CB;" d="M464.282,154.075l0.153-42.399c-0.003,1.05,0.689,2.1,2.075,2.901l-0.153,42.399
		C464.971,156.175,464.278,155.124,464.282,154.075z"/>
	<path style="fill:#C6C5CB;" d="M478.501,111.714l-0.153,42.399c-0.003,1.036-0.685,2.071-2.047,2.863
		c-2.736,1.59-7.186,1.592-9.944,0l0.153-42.399c2.757,1.592,7.208,1.59,9.944,0C477.816,113.785,478.498,112.75,478.501,111.714z"
		/>
</g>
<path style="fill:#E0E0E2;" d="M476.424,108.815c2.757,1.592,2.769,4.169,0.029,5.762c-2.736,1.59-7.186,1.592-9.944,0
	c-2.754-1.59-2.769-4.169-0.032-5.76C469.217,107.225,473.67,107.225,476.424,108.815z"/>
<g>
	<path style="fill:#C6C5CB;" d="M486.28,162.737c0.051-17.941,0.102-24.458,0.153-42.399c1.361-0.791,2.042-1.826,2.045-2.863
		l-0.153,42.399C488.324,160.911,487.642,161.946,486.28,162.737z"/>
	<path style="fill:#C6C5CB;" d="M474.258,159.834l0.153-42.399c-0.003,1.05,0.69,2.101,2.078,2.903l-0.153,42.399
		C474.948,161.936,474.255,160.884,474.258,159.834z"/>
	<path style="fill:#C6C5CB;" d="M466.389,162.734c0.051-17.941,0.102-24.457,0.153-42.398c1.359-0.79,2.041-1.824,2.044-2.86
		l-0.153,42.399c-0.003,1.036-0.684,2.07-2.044,2.86V162.734z"/>
	<path style="fill:#C6C5CB;" d="M454.37,159.835l0.153-42.399c-0.003,1.05,0.689,2.1,2.075,2.901l-0.153,42.399
		C455.059,161.936,454.367,160.884,454.37,159.835z"/>
</g>
<path style="fill:#E0E0E2;" d="M486.404,114.577c2.754,1.59,2.769,4.169,0.029,5.762c-2.736,1.59-7.19,1.59-9.944,0
	c-2.757-1.592-2.772-4.172-0.036-5.762C479.193,112.985,483.647,112.985,486.404,114.577z"/>
<path style="fill:#C6C5CB;" d="M486.28,162.737c-2.736,1.59-7.19,1.59-9.944,0l0.153-42.399c2.754,1.59,7.208,1.59,9.944,0
	C486.382,138.279,486.331,144.796,486.28,162.737z"/>
<path style="fill:#E0E0E2;" d="M466.51,114.577c2.757,1.592,2.769,4.169,0.032,5.76c-2.736,1.59-7.186,1.592-9.944,0
	c-2.754-1.59-2.769-4.169-0.032-5.76C459.301,112.987,463.756,112.987,466.51,114.577z"/>
<g>
	<path style="fill:#C6C5CB;" d="M466.389,162.735c-2.736,1.59-7.186,1.592-9.944,0l0.153-42.399c2.757,1.592,7.208,1.59,9.944,0
		c-0.051,17.94-0.102,24.457-0.153,42.396V162.735z"/>
	<path style="fill:#C6C5CB;" d="M484.238,165.597l0.153-42.399c-0.003,1.05,0.689,2.1,2.075,2.901l-0.153,42.399
		C484.927,167.697,484.235,166.647,484.238,165.597z"/>
	<path style="fill:#C6C5CB;" d="M478.412,165.638c-0.003,1.036-0.684,2.07-2.043,2.86c0.051-17.941,0.102-24.458,0.153-42.399
		c1.359-0.79,2.04-1.824,2.043-2.86C478.518,139.385,478.457,149.492,478.412,165.638z"/>
	<path style="fill:#C6C5CB;" d="M464.347,165.595l0.153-42.399c-0.003,1.05,0.69,2.101,2.078,2.903l-0.153,42.399
		C465.037,167.696,464.344,166.645,464.347,165.595z"/>
	<path style="fill:#C6C5CB;" d="M456.478,168.493c0.051-17.941,0.102-24.457,0.153-42.397c1.359-0.79,2.041-1.824,2.044-2.86
		l-0.153,42.399c-0.003,1.036-0.684,2.07-2.044,2.86V168.493z"/>
	<path style="fill:#C6C5CB;" d="M444.459,165.595l0.153-42.399c-0.003,1.05,0.689,2.1,2.075,2.901l-0.153,42.399
		C445.148,167.695,444.456,166.645,444.459,165.595z"/>
</g>
<path style="fill:#D8D8DA;" d="M498.455,123.236l-0.153,42.399c-0.003,1.036-0.684,2.071-2.045,2.863c-2.736,1.59-7.19,1.59-9.944,0
	l0.153-42.399c2.754,1.59,7.208,1.59,9.944,0C497.772,125.307,498.452,124.272,498.455,123.236z"/>
<path style="fill:#E0E0E2;" d="M496.381,120.336c2.754,1.59,2.769,4.169,0.029,5.762c-2.736,1.59-7.19,1.59-9.944,0
	c-2.754-1.59-2.769-4.169-0.032-5.76C489.173,118.746,493.627,118.746,496.381,120.336z"/>
<path style="fill:#C6C5CB;" d="M476.369,168.498c-2.736,1.59-7.19,1.59-9.944,0l0.153-42.399c2.754,1.59,7.208,1.59,9.944,0
	C476.471,144.04,476.42,150.557,476.369,168.498z"/>
<path style="fill:#E0E0E2;" d="M476.49,120.339c2.754,1.59,2.769,4.169,0.032,5.76c-2.736,1.59-7.19,1.59-9.944,0
	c-2.757-1.592-2.772-4.172-0.036-5.762C469.278,118.746,473.731,118.746,476.49,120.339z"/>
<path style="fill:#C6C5CB;" d="M456.478,168.496c-2.736,1.59-7.186,1.592-9.944,0l0.153-42.399c2.757,1.592,7.208,1.59,9.944,0
	c-0.051,17.94-0.102,24.457-0.153,42.396V168.496z"/>
<path style="fill:#E0E0E2;" d="M456.597,120.336c2.757,1.592,2.769,4.169,0.032,5.76c-2.736,1.59-7.186,1.592-9.944,0
	c-2.754-1.59-2.769-4.17-0.032-5.76C449.39,118.746,453.843,118.746,456.597,120.336z"/>
<g>
	<path style="fill:#C6C5CB;" d="M474.327,171.358l0.153-42.399c-0.003,1.05,0.689,2.1,2.075,2.901l-0.153,42.399
		C475.016,173.457,474.324,172.406,474.327,171.358z"/>
	<path style="fill:#C6C5CB;" d="M454.436,171.355l0.153-42.399c-0.003,1.05,0.69,2.101,2.079,2.903l-0.153,42.399
		C455.126,173.456,454.432,172.404,454.436,171.355z"/>
	<path style="fill:#C6C5CB;" d="M448.61,171.395c-0.003,1.036-0.684,2.07-2.044,2.86c0.051-17.941,0.102-24.458,0.153-42.399
		c1.359-0.79,2.041-1.824,2.044-2.86C448.717,145.142,448.655,155.249,448.61,171.395z"/>
	<path style="fill:#C6C5CB;" d="M434.544,171.358l0.153-42.399c-0.003,1.049,0.689,2.099,2.074,2.9l-0.153,42.399
		C435.233,173.458,434.541,172.407,434.544,171.358z"/>
	<path style="fill:#C6C5CB;" d="M488.541,128.999l-0.153,42.399c-0.003,1.036-0.684,2.07-2.043,2.86c-2.736,1.59-7.19,1.59-9.944,0
		l0.153-42.399c2.754,1.59,7.208,1.59,9.944,0C487.857,131.069,488.538,130.035,488.541,128.999z"/>
</g>
<path style="fill:#E0E0E2;" d="M486.465,126.099c2.754,1.59,2.769,4.169,0.032,5.76c-2.736,1.59-7.19,1.59-9.944,0
	c-2.754-1.59-2.769-4.169-0.032-5.76S483.711,124.509,486.465,126.099z"/>
<path style="fill:#C6C5CB;" d="M468.653,128.999l-0.153,42.399c-0.003,1.036-0.684,2.07-2.043,2.86c-2.736,1.59-7.19,1.59-9.944,0
	l0.153-42.399c2.754,1.59,7.208,1.59,9.944,0C467.97,131.069,468.65,130.035,468.653,128.999z"/>
<path style="fill:#E0E0E2;" d="M466.577,126.099c2.754,1.59,2.769,4.169,0.032,5.76c-2.736,1.59-7.19,1.59-9.944,0
	c-2.757-1.592-2.772-4.172-0.036-5.762C459.366,124.507,463.82,124.507,466.577,126.099z"/>
<path style="fill:#C6C5CB;" d="M446.566,174.255c-2.739,1.592-7.19,1.594-9.948,0.002l0.153-42.399
	c2.757,1.592,7.208,1.59,9.948-0.002C446.668,149.797,446.616,156.314,446.566,174.255z"/>
<path style="fill:#E0E0E2;" d="M446.686,126.097c2.757,1.592,2.769,4.169,0.032,5.76c-2.739,1.592-7.19,1.594-9.948,0.002
	c-2.754-1.59-2.769-4.169-0.029-5.762C439.479,124.507,443.932,124.507,446.686,126.097z"/>
<g>
	<path style="fill:#C6C5CB;" d="M444.521,177.117l0.153-42.399c-0.003,1.05,0.69,2.101,2.077,2.902l-0.153,42.399
		C445.211,179.219,444.518,178.167,444.521,177.117z"/>
	<path style="fill:#C6C5CB;" d="M438.696,177.158c-0.003,1.035-0.684,2.069-2.045,2.86c0.051-17.941,0.102-24.458,0.153-42.399
		c1.361-0.791,2.042-1.825,2.045-2.86C438.803,150.905,438.742,161.011,438.696,177.158z"/>
	<path style="fill:#C6C5CB;" d="M424.632,177.117l0.153-42.399c-0.003,1.05,0.689,2.1,2.075,2.901l-0.153,42.399
		C425.321,179.218,424.629,178.167,424.632,177.117z"/>
	<path style="fill:#C6C5CB;" d="M458.741,134.759l-0.153,42.399c-0.003,1.036-0.684,2.07-2.042,2.86
		c-2.739,1.592-7.194,1.592-9.948,0.002l0.153-42.399c2.754,1.59,7.208,1.59,9.948-0.002
		C458.057,136.828,458.738,135.794,458.741,134.759z"/>
</g>
<g>
	<path style="fill:#E0E0E2;" d="M456.666,131.859c2.754,1.59,2.769,4.169,0.032,5.76c-2.739,1.592-7.194,1.592-9.948,0.002
		c-2.757-1.592-2.772-4.172-0.032-5.764C449.454,130.267,453.909,130.267,456.666,131.859z"/>
	<path style="fill:#E0E0E2;" d="M436.771,131.859c2.757,1.592,2.772,4.167,0.032,5.76c-2.736,1.59-7.186,1.592-9.944,0
		c-2.754-1.59-2.769-4.169-0.032-5.76C429.566,130.267,434.017,130.269,436.771,131.859z"/>
</g>
<g>
	<path style="fill:#C6C5CB;" d="M436.651,180.018c-2.736,1.59-7.186,1.592-9.944,0l0.153-42.399c2.757,1.592,7.208,1.59,9.944,0
		C436.753,155.56,436.702,162.077,436.651,180.018z"/>
	<path style="fill:#C6C5CB;" d="M434.609,182.877l0.153-42.399c-0.003,1.05,0.69,2.101,2.079,2.903l-0.153,42.399
		C435.299,184.978,434.606,183.926,434.609,182.877z"/>
	<path style="fill:#C6C5CB;" d="M448.828,140.521l-0.153,42.399c-0.003,1.035-0.684,2.069-2.044,2.86c-2.736,1.59-7.19,1.59-9.944,0
		l0.153-42.399c2.754,1.59,7.208,1.59,9.944,0C448.144,142.59,448.825,141.556,448.828,140.521z"/>
</g>
<path style="fill:#E0E0E2;" d="M446.751,137.62c2.754,1.59,2.772,4.167,0.032,5.76c-2.736,1.59-7.19,1.59-9.944,0
	c-2.757-1.592-2.772-4.172-0.036-5.762C439.543,136.027,443.993,136.028,446.751,137.62z"/>
<path style="fill:#C6C5CB;" d="M464.415,177.117l0.153-42.399c-0.003,1.05,0.689,2.1,2.075,2.901l-0.153,42.399
	C465.105,179.218,464.412,178.166,464.415,177.117z"/>
<path style="fill:#D8D8DA;" d="M478.629,134.759l-0.153,42.399c-0.003,1.036-0.684,2.07-2.043,2.86c-2.736,1.59-7.19,1.59-9.944,0
	l0.153-42.399c2.754,1.59,7.208,1.59,9.944,0C477.946,136.828,478.626,135.794,478.629,134.759z"/>
<path style="fill:#E0E0E2;" d="M476.554,131.859c2.754,1.59,2.769,4.169,0.032,5.76s-7.19,1.59-9.944,0
	c-2.754-1.59-2.769-4.169-0.032-5.76C469.346,130.269,473.8,130.269,476.554,131.859z"/>
<g>
	<path style="fill:#C6C5CB;" d="M454.5,182.88l0.153-42.399c-0.003,1.049,0.689,2.099,2.074,2.9l-0.153,42.399
		C455.189,184.979,454.497,183.93,454.5,182.88z"/>
	<path style="fill:#C6C5CB;" d="M468.718,140.519l-0.153,42.399c-0.003,1.036-0.684,2.07-2.042,2.86
		c-2.739,1.592-7.194,1.592-9.948,0.002l0.153-42.399c2.754,1.59,7.208,1.59,9.948-0.002
		C468.034,142.589,468.715,141.555,468.718,140.519z"/>
</g>
<path style="fill:#E0E0E2;" d="M466.643,137.618c2.754,1.59,2.769,4.169,0.032,5.76c-2.739,1.592-7.194,1.592-9.948,0.002
	c-2.754-1.59-2.769-4.169-0.029-5.762C459.434,136.028,463.889,136.028,466.643,137.618z"/>
<g>
	<path style="fill:#C6C5CB;" d="M414.72,182.878l0.153-42.399c-0.003,1.05,0.689,2.1,2.075,2.901l-0.153,42.399
		C415.409,184.977,414.717,183.926,414.72,182.878z"/>
	<path style="fill:#C6C5CB;" d="M428.935,140.519l-0.153,42.399c-0.003,1.036-0.684,2.07-2.044,2.86
		c-2.736,1.59-7.186,1.592-9.944,0l0.153-42.399c2.757,1.592,7.208,1.59,9.944,0C428.252,142.589,428.933,141.555,428.935,140.519z"
		/>
</g>
<path style="fill:#E0E0E2;" d="M426.859,137.619c2.757,1.592,2.769,4.169,0.032,5.76c-2.736,1.59-7.186,1.592-9.944,0
	c-2.754-1.59-2.769-4.169-0.032-5.76C419.652,136.029,424.105,136.029,426.859,137.619z"/>
<g>
	<path style="fill:#C6C5CB;" d="M404.807,188.637l0.153-42.399c-0.003,1.05,0.69,2.1,2.076,2.901l-0.153,42.399
		C405.497,190.737,404.804,189.686,404.807,188.637z"/>
	<path style="fill:#C6C5CB;" d="M419.024,146.278l-0.153,42.399c-0.003,1.036-0.684,2.07-2.044,2.86
		c-2.739,1.592-7.186,1.592-9.944,0l0.153-42.399c2.757,1.592,7.204,1.592,9.944,0C418.34,148.349,419.021,147.314,419.024,146.278z
		"/>
</g>
<path style="fill:#E0E0E2;" d="M416.948,143.379c2.757,1.592,2.769,4.169,0.032,5.76c-2.739,1.592-7.186,1.592-9.944,0
	c-2.754-1.59-2.772-4.167-0.032-5.76C409.74,141.789,414.194,141.789,416.948,143.379z"/>
<g>
	<path style="fill:#C6C5CB;" d="M424.697,188.636l0.153-42.399c-0.003,1.05,0.69,2.101,2.079,2.903l-0.153,42.399
		C425.387,190.738,424.694,189.686,424.697,188.636z"/>
	<path style="fill:#C6C5CB;" d="M438.914,146.28l-0.153,42.399c-0.003,1.036-0.684,2.07-2.043,2.86c-2.736,1.59-7.19,1.59-9.944,0
		l0.153-42.399c2.754,1.59,7.208,1.59,9.944,0C438.232,148.351,438.911,147.317,438.914,146.28z"/>
</g>
<path style="fill:#E0E0E2;" d="M436.839,143.381c2.754,1.59,2.769,4.169,0.032,5.76c-2.736,1.59-7.19,1.59-9.944,0
	c-2.757-1.592-2.772-4.172-0.036-5.762C429.628,141.789,434.082,141.789,436.839,143.381z"/>
<path style="fill:#C6C5CB;" d="M444.589,188.639l0.153-42.399c-0.003,1.05,0.689,2.1,2.075,2.901l-0.153,42.399
	C445.278,190.739,444.586,189.688,444.589,188.639z"/>
<path style="fill:#D8D8DA;" d="M458.804,146.281l-0.153,42.399c-0.003,1.035-0.684,2.069-2.044,2.86c-2.736,1.59-7.19,1.59-9.944,0
	l0.153-42.399c2.754,1.59,7.208,1.59,9.944,0C458.121,148.35,458.8,147.317,458.804,146.281z"/>
<path style="fill:#E0E0E2;" d="M456.727,143.381c2.754,1.59,2.772,4.167,0.032,5.76c-2.736,1.59-7.19,1.59-9.944,0
	s-2.769-4.169-0.032-5.76C449.523,141.789,453.973,141.791,456.727,143.381z"/>
<g>
	<path style="fill:#C6C5CB;" d="M414.784,194.396l0.153-42.399c-0.003,1.05,0.691,2.101,2.08,2.903l-0.153,42.399
		C415.475,196.497,414.781,195.447,414.784,194.396z"/>
	<path style="fill:#C6C5CB;" d="M429.003,152.041l-0.153,42.399c-0.003,1.036-0.684,2.07-2.042,2.86c-2.739,1.592-7.19,1.59-9.944,0
		l0.153-42.399c2.754,1.59,7.204,1.592,9.944,0C428.319,154.111,429,153.077,429.003,152.041z"/>
</g>
<path style="fill:#E0E0E2;" d="M426.928,149.14c2.754,1.59,2.769,4.169,0.032,5.76c-2.739,1.592-7.19,1.59-9.944,0
	c-2.757-1.592-2.776-4.169-0.036-5.762C419.716,147.548,424.17,147.548,426.928,149.14z"/>
<g>
	<path style="fill:#C6C5CB;" d="M434.676,194.399L434.829,152c-0.003,1.05,0.689,2.1,2.075,2.901l-0.153,42.399
		C435.365,196.499,434.673,195.449,434.676,194.399z"/>
	<path style="fill:#C6C5CB;" d="M448.891,152.041l-0.153,42.399c-0.003,1.036-0.684,2.07-2.043,2.86c-2.736,1.59-7.19,1.59-9.944,0
		l0.153-42.399c2.754,1.59,7.208,1.59,9.944,0C448.207,154.111,448.888,153.076,448.891,152.041z"/>
</g>
<path style="fill:#E0E0E2;" d="M446.816,149.14c2.754,1.59,2.769,4.169,0.032,5.76c-2.736,1.59-7.19,1.59-9.944,0
	c-2.754-1.59-2.769-4.169-0.032-5.76C439.608,147.55,444.062,147.55,446.816,149.14z"/>
<path style="fill:#C6C5CB;" d="M424.764,200.159l0.153-42.399c-0.003,1.05,0.69,2.1,2.076,2.901l-0.153,42.399
	C425.454,202.259,424.761,201.208,424.764,200.159z"/>
<path style="fill:#D8D8DA;" d="M438.979,157.801l-0.153,42.399c-0.003,1.036-0.684,2.07-2.042,2.86c-2.739,1.592-7.19,1.59-9.944,0
	l0.153-42.399c2.754,1.59,7.204,1.592,9.944,0C438.296,159.871,438.977,158.837,438.979,157.801z"/>
<path style="fill:#E0E0E2;" d="M436.904,154.901c2.754,1.59,2.769,4.169,0.032,5.76c-2.739,1.592-7.19,1.59-9.944,0
	c-2.754-1.59-2.772-4.167-0.032-5.76C429.696,153.311,434.15,153.311,436.904,154.901z"/>
<g>
	<path style="fill:#C6C5CB;" d="M408.96,194.436c-0.003,1.036-0.685,2.071-2.047,2.863c0.051-17.941,0.102-24.458,0.153-42.399
		c1.361-0.792,2.044-1.827,2.047-2.863C409.066,168.184,409.005,178.291,408.96,194.436z"/>
	<path style="fill:#C6C5CB;" d="M396.969,197.3c-1.385-0.8-2.079-1.851-2.075-2.9l0.153-42.399c-0.003,1.049,0.689,2.1,2.075,2.9
		c2.757,1.592,7.208,1.59,9.944,0c-0.051,17.941-0.102,24.458-0.153,42.399C404.176,198.89,399.726,198.892,396.969,197.3z"/>
</g>
<path style="fill:#E0E0E2;" d="M407.036,149.138c2.757,1.592,2.769,4.169,0.029,5.762c-2.736,1.59-7.186,1.592-9.944,0
	c-2.754-1.59-2.769-4.169-0.032-5.76C399.828,147.548,404.282,147.548,407.036,149.138z"/>
<path style="fill:#D8D8DA;" d="M419.091,157.801l-0.153,42.399c-0.003,1.036-0.684,2.071-2.045,2.863c-2.736,1.59-7.19,1.59-9.944,0
	c-1.388-0.801-2.082-1.853-2.079-2.903l0.153-42.399c-0.003,1.05,0.69,2.101,2.079,2.903c2.754,1.59,7.208,1.59,9.944,0
	C418.407,159.872,419.087,158.837,419.091,157.801z"/>
<path style="fill:#E0E0E2;" d="M417.016,154.901c2.754,1.59,2.769,4.169,0.029,5.762c-2.736,1.59-7.19,1.59-9.944,0
	c-2.757-1.592-2.772-4.172-0.036-5.762C409.805,153.309,414.259,153.309,417.016,154.901z"/>
<path style="fill:#C6C5CB;" d="M429.067,163.56l-0.153,42.399c-0.003,1.036-0.684,2.071-2.045,2.863c-2.736,1.59-7.19,1.59-9.944,0
	c-1.386-0.8-2.079-1.851-2.075-2.901l0.153-42.399c-0.003,1.05,0.689,2.1,2.075,2.901c2.754,1.59,7.208,1.59,9.944,0
	C428.382,165.631,429.064,164.596,429.067,163.56z"/>
<path style="fill:#E0E0E2;" d="M426.993,160.661c2.754,1.59,2.769,4.169,0.029,5.762c-2.736,1.59-7.19,1.59-9.944,0
	s-2.769-4.169-0.032-5.76C419.785,159.071,424.239,159.071,426.993,160.661z"/>
<g>
</g>
<g>
</g>
<g>
</g>
<g>
</g>
<g>
</g>
<g>
</g>
<g>
</g>
<g>
</g>
<g>
</g>
<g>
</g>
<g>
</g>
<g>
</g>
<g>
</g>
<g>
</g>
<g>
</g>
</svg>
