<?xml version="1.0" encoding="iso-8859-1"?>
<!-- Generator: Adobe Illustrator 19.0.0, SVG Export Plug-In . SVG Version: 6.00 Build 0)  -->
<svg version="1.1" id="Layer_1" xmlns="http://www.w3.org/2000/svg" xmlns:xlink="http://www.w3.org/1999/xlink" x="0px" y="0px"
	 viewBox="0 0 512 512" style="enable-background:new 0 0 512 512;" xml:space="preserve">
<path style="fill:#91DC5A;" d="M403.696,4.395L4.393,403.696C1.58,406.51-0.001,410.324,0,414.303c0,3.978,1.58,7.793,4.393,10.605
	C60.556,481.071,135.227,512,214.651,512c79.426,0,154.096-30.93,210.257-87.092c0.003-0.004-0.003,0.004,0.001,0
	C481.066,368.75,512,294.071,512,214.651c0-79.425-30.929-154.096-87.091-210.258C419.051-1.465,409.554-1.465,403.696,4.395z"/>
<path style="fill:#6DC82A;" d="M403.696,4.395l-199.651,199.65l220.863,220.864C481.066,368.75,512,294.071,512,214.651
	c0-79.425-30.929-154.096-87.091-210.258C419.051-1.465,409.554-1.465,403.696,4.395z"/>
<path style="fill:#FF3F62;" d="M371.875,42.426c-3.979,0-7.794,1.58-10.607,4.394L46.819,361.27c-5.858,5.858-5.858,15.353,0,21.213
	C91.649,427.313,151.252,452,214.651,452s123.002-24.69,167.83-69.52c44.829-44.828,69.517-104.432,69.517-167.83
	c0-63.396-24.688-123.001-69.517-167.831C379.668,44.006,375.854,42.426,371.875,42.426z"/>
<path style="fill:#FF0C38;" d="M371.875,42.426c-3.979,0-7.794,1.58-10.607,4.394L204.044,204.044l178.437,178.437
	c44.829-44.828,69.517-104.432,69.517-167.83c0-63.396-24.688-123.001-69.517-167.831C379.668,44.006,375.854,42.426,371.875,42.426
	z"/>
<g>
	<path style="fill:#2D2D30;" d="M267.685,267.68c-2.794,2.793-6.661,4.397-10.606,4.397c-3.945,0-7.814-1.604-10.607-4.397
		s-4.391-6.654-4.391-10.602c-0.006-3.951,1.598-7.818,4.392-10.611c2.786-2.787,6.654-4.392,10.606-4.385
		c3.945,0,7.807,1.598,10.6,4.391s4.398,6.66,4.398,10.607C272.076,261.026,270.471,264.893,267.685,267.68z"/>
	<path style="fill:#2D2D30;" d="M199.528,335.844c-3.891,3.893-9.784,5.488-15.36,3.629c-7.859-2.619-12.107-11.113-9.486-18.973
		c2.619-7.857,11.113-12.107,18.974-9.486c7.858,2.619,12.106,11.111,9.487,18.971l-0.001,0.002
		C202.38,332.272,201.122,334.25,199.528,335.844z"/>
</g>
<g>
	<path style="fill:#1D1D1F;" d="M335.85,199.514c-2.793,2.793-6.661,4.398-10.606,4.398c-3.945,0-7.814-1.605-10.607-4.398
		s-4.392-6.654-4.392-10.6c-0.007-3.953,1.599-7.82,4.392-10.613c2.793-2.794,6.653-4.392,10.605-4.385
		c3.953-0.007,7.814,1.591,10.607,4.384s4.398,6.662,4.391,10.614C340.24,192.86,338.643,196.72,335.85,199.514z"/>
	<path style="fill:#1D1D1F;" d="M369.932,301.762c-2.793,2.793-6.66,4.398-10.606,4.398c-3.945,0-7.813-1.605-10.606-4.398
		s-4.391-6.654-4.391-10.6c-0.008-3.953,1.598-7.82,4.391-10.613c2.794-2.793,6.654-4.391,10.606-4.385
		c3.953-0.008,7.813,1.592,10.606,4.385s4.399,6.66,4.392,10.613C374.323,295.108,372.726,298.969,369.932,301.762z"/>
</g>
<path style="fill:#2D2D30;" d="M301.767,369.926c-2.792,2.793-6.66,4.398-10.606,4.398c-3.945,0-7.814-1.605-10.607-4.398
	s-4.391-6.652-4.391-10.6c0-3.945,1.599-7.82,4.391-10.613c2.786-2.785,6.661-4.383,10.607-4.383
	c3.945-0.002,7.806,1.598,10.599,4.391s4.398,6.66,4.398,10.605C306.158,363.274,304.553,367.141,301.767,369.926z"/>
<path style="fill:#1D1D1F;" d="M257.078,242.082c-3.952-0.007-7.82,1.598-10.606,4.385c-0.001,0-0.003,0.002-0.003,0.002
	l21.213,21.213c0,0,0.002-0.002,0.003-0.002c2.786-2.787,4.392-6.654,4.392-10.6c0-3.947-1.605-7.815-4.398-10.607
	C264.885,243.68,261.023,242.082,257.078,242.082z"/>
<g>
</g>
<g>
</g>
<g>
</g>
<g>
</g>
<g>
</g>
<g>
</g>
<g>
</g>
<g>
</g>
<g>
</g>
<g>
</g>
<g>
</g>
<g>
</g>
<g>
</g>
<g>
</g>
<g>
</g>
</svg>
