<?xml version="1.0" encoding="iso-8859-1"?>
<!-- Generator: Adobe Illustrator 19.0.0, SVG Export Plug-In . SVG Version: 6.00 Build 0)  -->
<svg version="1.1" id="Layer_1" xmlns="http://www.w3.org/2000/svg" xmlns:xlink="http://www.w3.org/1999/xlink" x="0px" y="0px"
	 viewBox="0 0 511.999 511.999" style="enable-background:new 0 0 511.999 511.999;" xml:space="preserve">
<path style="fill:#7F7F7F;" d="M245.649,0c129.525,0,234.519,106.161,234.519,237.119S375.174,474.239,245.649,474.239
	S11.13,368.079,11.13,237.119S116.124,0,245.649,0L245.649,0z"/>
<path style="fill:#707070;" d="M480.169,237.119c0-65.252-26.072-124.345-68.253-167.219c-2.176,3.809-13.939,23.646-34.046,43.908
	c-22.371,22.544-44.409,34.865-44.409,34.865L157.339,326.153c0,0-11.084,21.057-34.241,44.392
	c-21.268,21.433-40.45,32.429-43.44,34.08c42.451,43.006,101.147,69.614,165.99,69.614
	C375.174,474.239,480.169,368.079,480.169,237.119z"/>
<path style="fill:#5B5B5B;" d="M245.649,47.367c103.651,0,187.672,84.954,187.672,189.753S349.3,426.871,245.649,426.871
	S57.978,341.918,57.978,237.119S141.998,47.367,245.649,47.367L245.649,47.367z"/>
<path style="fill:#4C4C4C;" d="M245.649,426.872c103.651,0,187.672-84.953,187.672-189.753c0-49.806-18.987-95.122-50.032-128.975
	c-1.735,1.877-3.537,3.768-5.419,5.664c-22.371,22.544-44.409,34.865-44.409,34.865L157.339,326.153
	c0,0-11.084,21.057-34.241,44.392c-1.84,1.854-3.661,3.62-5.459,5.318C151.169,407.501,196.168,426.872,245.649,426.872z"/>
<path style="fill:#8C8C8C;" d="M245.649,110.224c69.316,0,125.506,56.813,125.506,126.897s-56.189,126.896-125.506,126.896
	c-69.316,0-125.505-56.812-125.505-126.896C120.145,167.036,176.333,110.224,245.649,110.224L245.649,110.224z"/>
<path style="fill:#C1C1C1;" d="M295.706,247.137c-1.32,6.781-3.949,13.085-7.618,18.63l53.075,53.664
	c-4.322,5.122-9.039,9.892-14.106,14.261l-53.074-53.663c-5.448,3.686-11.637,6.338-18.295,7.68v75.902
	c-3.312,0.265-6.659,0.404-10.04,0.404c-3.379,0-6.727-0.139-10.04-0.404v-75.901c-6.657-1.343-12.846-3.995-18.295-7.68
	l-53.074,53.662c-5.065-4.37-9.783-9.139-14.106-14.261l53.074-53.662c-3.669-5.545-6.3-11.849-7.619-18.631h-75.058
	c-0.255-3.306-0.388-6.646-0.388-10.017s0.132-6.712,0.388-10.017h75.058c1.32-6.782,3.95-13.086,7.619-18.631l-53.074-53.662
	c4.322-5.122,9.039-9.892,14.106-14.261l53.074,53.663c5.448-3.685,11.637-6.337,18.295-7.68v-75.904
	c3.312-0.265,6.659-0.405,10.04-0.405c3.38,0,6.727,0.14,10.04,0.405v75.902c6.657,1.342,12.846,3.995,18.295,7.68l53.074-53.663
	c5.065,4.37,9.784,9.139,14.106,14.261l-53.075,53.664c3.669,5.545,6.298,11.848,7.618,18.63h75.06
	c0.255,3.306,0.388,6.646,0.388,10.017s-0.132,6.712-0.388,10.017H295.706z"/>
<path style="fill:#E5E5E5;" d="M245.649,208.778c15.481,0,28.029,12.689,28.029,28.341s-12.547,28.341-28.029,28.341
	s-28.03-12.689-28.03-28.341S230.168,208.778,245.649,208.778L245.649,208.778z"/>
</svg>
